<svg width="1920" height="180" viewBox="0 0 1920 180" fill="none" xmlns="http://www.w3.org/2000/svg">
<mask id="mask0" mask-type="alpha" maskUnits="userSpaceOnUse" x="0" y="0" width="1920" height="180">
<rect width="1920" height="180" fill="#CDD1D9"/>
</mask>
<g mask="url(#mask0)">
<path d="M1853.12 312.256L1630.34 505.042L1437.92 281.775L1660.72 88.9795L1853.12 312.256ZM1881 314.304L1662.77 61L1410 279.686L1628.23 533L1881 314.304Z" fill="#D2D4D8"/>
<path d="M1796.69 308.575L1634.43 448.671L1494.31 286.425L1656.57 146.329L1796.69 308.575ZM1817 310.06L1658.06 126L1474 284.972L1632.93 469L1817 310.06Z" fill="#D2D4D8"/>
<path d="M1059.31 -249.771C1059.31 -46.2593 1224.29 118.719 1427.8 118.719C1631.31 118.719 1796.29 -46.2592 1796.29 -249.771C1796.29 -453.282 1631.31 -618.261 1427.8 -618.261C1224.29 -618.261 1059.31 -453.282 1059.31 -249.771Z" fill="#D2D4D8"/>
<path d="M-224.736 -10.3349L278.653 638.785C278.653 638.785 4.38044 290.164 448.615 16.4623C892.85 -257.24 1174.19 -659.454 973.042 -1087.92L-224.736 -10.3349Z" fill="#BEC0C4"/>
<path opacity="0.5" d="M233.612 118.398C231.003 117.56 227.345 120.64 198.822 133.987C198.783 134.006 198.743 134.026 198.703 134.045L196.279 135.214C194.253 136.192 194.213 138.141 193.41 139.86C192.482 142.338 194.274 143.919 195.775 147.571C196.85 149.798 199.068 149.759 200.714 150.462C203.171 151.256 204.112 149.687 212.7 145.859L214.081 148.721L212.635 150.766C210.342 154.002 214.263 158.2 217.591 155.995L219.662 160.287L218.216 162.332C215.904 165.595 219.87 169.754 223.173 167.561L225.244 171.853L223.797 173.899C221.485 177.161 225.425 181.333 228.747 179.114L230.818 183.406L229.372 185.452C227.04 188.74 231.125 192.942 234.415 190.622C235.12 191.846 235.924 193.039 236.781 194.172C236.768 194.212 235.83 195.314 236.089 196.969C236.521 199.623 239.549 200.957 241.738 199.435C243.365 200.845 244.286 201.4 247.801 204.013C249.772 205.458 252.514 204.135 252.609 201.693C252.579 198.28 253.562 193.313 251.543 186.15L253.089 184.007C255.321 180.916 251.836 176.841 248.477 178.578L246.348 174.165C247.654 172.27 247.999 172.004 248.275 171.188C249.393 167.887 245.695 164.996 242.837 166.891L240.766 162.599C242.066 160.69 242.418 160.438 242.694 159.622C243.798 156.36 240.14 153.417 237.263 155.338L235.185 151.033L236.631 148.987C238.964 145.698 234.97 141.586 231.675 143.758L229.597 139.453C230.97 137.493 231.143 137.343 231.364 136.853C237.154 133.76 239.088 133.875 239.975 131.517C240.462 129.751 241.866 128.092 240.785 125.851L238.571 121.263C237.463 119.068 235.244 119.107 233.612 118.398ZM250.352 201.584C250.328 202.244 249.586 202.602 249.054 202.21C245.493 199.569 244.665 199.07 243.155 197.769L249.818 188.497C251.074 194.18 250.369 197.965 250.352 201.584ZM246.79 180.225L245.537 181.961C245.49 182 245.464 182.046 245.424 182.098L238.108 192.284C237.296 191.178 236.571 190.014 235.912 188.818L244.869 176.21L246.803 180.218L246.79 180.225ZM241.234 168.713L232.265 181.36L230.304 177.298L239.274 164.65L241.234 168.713ZM235.659 157.16L226.69 169.808L224.729 165.745L233.699 153.097L235.659 157.16ZM230.078 145.593L221.108 158.241L219.148 154.179L228.118 141.531L230.078 145.593ZM215.514 146.681L214.674 144.94L217.84 143.413L215.514 146.681Z" fill="#E6E8EC"/>
<path d="M302.683 -100.819L44.4251 122.599L-178.634 -136.144L79.6482 -359.575L302.683 -100.819ZM335 -98.4466L82.0167 -392L-211 -138.566L41.9833 155L335 -98.4466Z" fill="#D2D4D8"/>
<path d="M237.432 -105.149L49.1528 57.4108L-113.432 -130.851L74.8472 -293.411L237.432 -105.149ZM261 -103.426L76.5699 -317L-137 -132.537L47.4179 81L261 -103.426Z" fill="#D2D4D8"/>
<circle opacity="0.5" cx="1101" cy="197" r="45" stroke="#E6E8EC" stroke-width="30"/>
<path opacity="0.5" d="M1822.79 14.9031C1827.04 13.5394 1832.99 18.5532 1879.43 40.2839C1879.49 40.3152 1879.56 40.3464 1879.62 40.3776L1883.57 42.282C1886.87 43.8741 1886.93 47.0474 1888.24 49.8458C1889.75 53.8793 1886.83 56.4537 1884.39 62.399C1882.64 66.0245 1879.03 65.9611 1876.35 67.1061C1872.35 68.3993 1870.82 65.8448 1856.83 59.6127L1854.59 64.2709L1856.94 67.6012C1860.67 72.8696 1854.29 79.7045 1848.87 76.1141L1845.5 83.1014L1847.85 86.4318C1851.62 91.743 1845.16 98.5142 1839.78 94.9447L1836.41 101.932L1838.77 105.262C1842.53 110.574 1836.12 117.366 1830.71 113.753L1827.34 120.741L1829.69 124.071C1833.49 129.425 1826.84 136.266 1821.48 132.489C1820.33 134.482 1819.02 136.423 1817.63 138.269C1817.65 138.334 1819.18 140.127 1818.75 142.822C1818.05 147.142 1813.12 149.314 1809.56 146.836C1806.91 149.133 1805.41 150.035 1799.69 154.29C1796.48 156.642 1792.02 154.488 1791.86 150.513C1791.91 144.956 1790.31 136.869 1793.59 125.209L1791.08 121.719C1787.44 116.688 1793.12 110.053 1798.59 112.881L1802.05 105.696C1799.93 102.611 1799.36 102.177 1798.92 100.85C1797.1 95.4748 1803.12 90.7678 1807.77 93.8528L1811.14 86.8655C1809.02 83.7584 1808.45 83.3467 1808 82.0192C1806.2 76.709 1812.16 71.9164 1816.84 75.0442L1820.23 68.035L1817.87 64.7046C1814.08 59.3506 1820.58 52.6546 1825.94 56.1917L1829.32 49.1824C1827.09 45.9908 1826.81 45.7469 1826.45 44.9501C1817.02 39.9134 1813.87 40.1009 1812.43 36.2617C1811.64 33.3869 1809.35 30.6856 1811.11 27.0382L1814.72 19.5675C1816.52 15.9952 1820.13 16.0585 1822.79 14.9031ZM1795.53 150.335C1795.57 151.411 1796.78 151.994 1797.65 151.355C1803.45 147.055 1804.79 146.243 1807.25 144.125L1796.4 129.03C1794.36 138.282 1795.51 144.444 1795.53 150.335ZM1801.33 115.562L1803.37 118.388C1803.45 118.451 1803.49 118.526 1803.56 118.612L1815.47 135.195C1816.79 133.395 1817.97 131.499 1819.04 129.552L1804.46 109.025L1801.31 115.551L1801.33 115.562ZM1810.38 96.8189L1824.98 117.41L1828.17 110.797L1813.57 90.2051L1810.38 96.8189ZM1819.45 78.0103L1834.06 98.6017L1837.25 91.9879L1822.65 71.3965L1819.45 78.0103ZM1828.54 59.1797L1843.14 79.7711L1846.34 73.1573L1831.73 52.5659L1828.54 59.1797ZM1852.25 60.9509L1853.62 58.1165L1848.47 55.6293L1852.25 60.9509Z" fill="#E6E8EC"/>
</g>
</svg>
