<svg width="19" height="16" viewBox="0 0 19 16" fill="none" xmlns="http://www.w3.org/2000/svg">
<path d="M14.5452 14.5453C14.5452 14.947 14.6876 15.2897 14.9715 15.5736C15.2553 15.8577 15.5983 15.9999 16.0001 15.9999C16.4014 15.9999 16.7443 15.8577 17.0282 15.5736C17.3123 15.2897 17.4545 14.947 17.4545 14.5453C17.4545 14.1437 17.3125 13.801 17.0282 13.5169C16.7443 13.233 16.4014 13.0908 16.0001 13.0908C15.5983 13.0908 15.2553 13.233 14.9715 13.5169C14.6876 13.801 14.5452 14.1437 14.5452 14.5453Z" fill="#E21E23"/>
<path d="M18.6929 1.67033C18.5488 1.52637 18.3785 1.45437 18.1815 1.45437H4.53405C4.52637 1.40139 4.50933 1.30488 4.48282 1.16474C4.45632 1.02452 4.43554 0.912835 4.42038 0.829413C4.40513 0.746348 4.37687 0.64589 4.33512 0.528477C4.29345 0.410985 4.24422 0.318089 4.18742 0.25007C4.13071 0.181692 4.05496 0.123144 3.96024 0.0737512C3.86559 0.0246766 3.75757 0 3.63642 0H0.727403C0.530308 0 0.359881 0.0721194 0.21596 0.21588C0.072 0.359801 0 0.530348 0 0.727283C0 0.924219 0.072 1.09469 0.21596 1.23861C0.36 1.38257 0.530467 1.45449 0.727403 1.45449H3.04529L5.05652 10.8068C5.04147 10.837 4.96382 10.9808 4.8236 11.2385C4.68346 11.4962 4.57174 11.7215 4.48848 11.9147C4.40517 12.1081 4.3635 12.2576 4.3635 12.3636C4.3635 12.5605 4.4355 12.731 4.57938 12.8752C4.7235 13.0187 4.89389 13.0909 5.09086 13.0909H5.81811H15.9998H16.7266C16.9235 13.0909 17.094 13.0187 17.2379 12.8752C17.382 12.7311 17.4539 12.5606 17.4539 12.3636C17.4539 12.1666 17.382 11.9961 17.2379 11.8523C17.0941 11.7084 16.9236 11.6362 16.7266 11.6362H6.27248C6.45437 11.2725 6.54527 11.0304 6.54527 10.9091C6.54527 10.8331 6.5358 10.7498 6.51681 10.6591C6.49783 10.5684 6.47514 10.4678 6.44864 10.3578C6.42209 10.2483 6.40513 10.1668 6.39757 10.1137L18.2613 8.7274C18.4505 8.70451 18.6059 8.62336 18.7271 8.48302C18.8484 8.343 18.9088 8.18205 18.9088 8.00012V2.18189C18.9087 1.98495 18.8369 1.81449 18.6929 1.67033Z" fill="#E21E23"/>
<path d="M4.36353 14.5453C4.36353 14.947 4.5055 15.2897 4.78963 15.5736C5.07385 15.8577 5.4165 15.9999 5.81813 15.9999C6.21952 15.9999 6.56237 15.8577 6.84639 15.5736C7.13053 15.2897 7.27266 14.947 7.27266 14.5453C7.27266 14.1437 7.13065 13.801 6.84639 13.5169C6.56233 13.233 6.21952 13.0908 5.81813 13.0908C5.41654 13.0908 5.07369 13.233 4.78963 13.5169C4.50565 13.801 4.36353 14.1437 4.36353 14.5453Z" fill="#E21E23"/>
</svg>
