<svg width="215" height="29" viewBox="0 0 215 29" fill="none" xmlns="http://www.w3.org/2000/svg">
<path d="M39.6781 6.71779V21.0327H35.4301V15.7566H31.5061V21.0327H27.2581V6.71779H31.5061V11.7894H35.4301V6.71779H39.6781Z" fill="white"/>
<path d="M54.1042 6.71779V21.0327H49.9282V10.4601H46.0942V21.0327H41.9182V6.71779H54.1042Z" fill="white"/>
<path d="M68.5183 6.71779V21.0327H64.3423V10.4601H60.5083V21.0327H56.3323V6.71779H68.5183Z" fill="white"/>
<path d="M82.5508 21.3599C81.1948 21.3599 79.9768 21.0395 78.8968 20.3988C77.8168 19.758 76.9708 18.8718 76.3588 17.7403C75.7468 16.5951 75.4408 15.3067 75.4408 13.8753C75.4408 12.4438 75.7468 11.1622 76.3588 10.0307C76.9708 8.88548 77.8168 7.9925 78.8968 7.35174C79.9768 6.71097 81.1948 6.39059 82.5508 6.39059C83.9068 6.39059 85.1248 6.71097 86.2048 7.35174C87.2848 7.9925 88.1308 8.88548 88.7428 10.0307C89.3548 11.1622 89.6608 12.4438 89.6608 13.8753C89.6608 15.3067 89.3548 16.5951 88.7428 17.7403C88.1308 18.8718 87.2848 19.758 86.2048 20.3988C85.1248 21.0395 83.9068 21.3599 82.5508 21.3599ZM82.5508 17.454C83.0788 17.454 83.5528 17.3108 83.9728 17.0245C84.4048 16.7246 84.7468 16.3088 84.9988 15.7771C85.2508 15.2318 85.3768 14.5978 85.3768 13.8753C85.3768 13.1527 85.2508 12.5256 84.9988 11.9939C84.7468 11.4485 84.4048 11.0327 83.9728 10.7464C83.5528 10.4465 83.0788 10.2965 82.5508 10.2965C82.0228 10.2965 81.5428 10.4465 81.1108 10.7464C80.6908 11.0327 80.3548 11.4485 80.1028 11.9939C79.8508 12.5256 79.7248 13.1527 79.7248 13.8753C79.7248 14.5978 79.8508 15.2318 80.1028 15.7771C80.3548 16.3088 80.6908 16.7246 81.1108 17.0245C81.5428 17.3108 82.0228 17.454 82.5508 17.454Z" fill="white"/>
<path d="M97.5257 11.0941C98.9777 11.0941 100.106 11.5371 100.91 12.4233C101.714 13.3095 102.116 14.5297 102.116 16.0838C102.116 17.1336 101.864 18.0607 101.36 18.865C100.868 19.6558 100.19 20.2693 99.3257 20.7055C98.4617 21.1418 97.4957 21.3599 96.4277 21.3599C94.6757 21.3599 93.2597 20.7669 92.1797 19.5808C91.1117 18.3947 90.5777 16.5678 90.5777 14.1002C90.5777 9.45126 92.4017 6.75187 96.0497 6.00205L100.946 5L101.486 8.78323L97.3457 9.62168C96.3737 9.81254 95.6717 10.1057 95.2397 10.501C94.8197 10.8964 94.5617 11.4758 94.4657 12.2393C95.3057 11.4758 96.3257 11.0941 97.5257 11.0941ZM96.4277 17.9448C96.9197 17.9448 97.2977 17.7607 97.5617 17.3926C97.8377 17.0245 97.9757 16.5815 97.9757 16.0634C97.9757 15.4908 97.8317 15.0477 97.5437 14.7341C97.2677 14.4206 96.8957 14.2638 96.4277 14.2638C95.9477 14.2638 95.5637 14.4274 95.2757 14.7546C94.9877 15.0682 94.8437 15.5112 94.8437 16.0838C94.8437 16.6292 94.9877 17.0791 95.2757 17.4335C95.5757 17.7744 95.9597 17.9448 96.4277 17.9448Z" fill="white"/>
<path d="M108.444 21.2372C107.352 21.2372 106.368 20.9918 105.492 20.501C104.628 19.9966 103.95 19.3081 103.458 18.4356C102.966 17.5494 102.72 16.5474 102.72 15.4294C102.72 14.3115 102.966 13.3163 103.458 12.4438C103.95 11.5576 104.628 10.8691 105.492 10.3783C106.368 9.88753 107.352 9.64213 108.444 9.64213C109.548 9.64213 110.532 9.88753 111.396 10.3783C112.272 10.8691 112.95 11.5576 113.43 12.4438C113.922 13.3163 114.168 14.3115 114.168 15.4294C114.168 16.5474 113.922 17.5494 113.43 18.4356C112.95 19.3081 112.272 19.9966 111.396 20.501C110.532 20.9918 109.548 21.2372 108.444 21.2372ZM108.444 17.638C108.912 17.638 109.296 17.4472 109.596 17.0654C109.896 16.6701 110.046 16.1247 110.046 15.4294C110.046 14.7342 109.896 14.1956 109.596 13.8139C109.296 13.4322 108.912 13.2413 108.444 13.2413C107.976 13.2413 107.592 13.4322 107.292 13.8139C106.992 14.1956 106.842 14.7342 106.842 15.4294C106.842 16.1247 106.992 16.6701 107.292 17.0654C107.592 17.4472 107.976 17.638 108.444 17.638Z" fill="white"/>
<path d="M121.996 9.64213C122.86 9.64213 123.652 9.88071 124.372 10.3579C125.104 10.8214 125.68 11.4962 126.1 12.3824C126.532 13.2686 126.748 14.2911 126.748 15.4499C126.748 16.6087 126.532 17.6312 126.1 18.5174C125.68 19.3899 125.104 20.0648 124.372 20.5419C123.652 21.0055 122.86 21.2372 121.996 21.2372C120.904 21.2372 120.07 20.9168 119.494 20.2761V25H115.426V9.84662H119.296V10.7669C119.884 10.017 120.784 9.64213 121.996 9.64213ZM121.024 17.638C121.492 17.638 121.876 17.4472 122.176 17.0654C122.476 16.6837 122.626 16.1452 122.626 15.4499C122.626 14.7546 122.476 14.2161 122.176 13.8344C121.876 13.439 121.492 13.2413 121.024 13.2413C120.556 13.2413 120.172 13.439 119.872 13.8344C119.572 14.2161 119.422 14.7546 119.422 15.4499C119.422 16.1452 119.572 16.6837 119.872 17.0654C120.172 17.4472 120.556 17.638 121.024 17.638Z" fill="white"/>
<path d="M133.141 21.2372C132.049 21.2372 131.065 20.9918 130.189 20.501C129.325 19.9966 128.647 19.3081 128.155 18.4356C127.663 17.5494 127.417 16.5474 127.417 15.4294C127.417 14.3115 127.663 13.3163 128.155 12.4438C128.647 11.5576 129.325 10.8691 130.189 10.3783C131.065 9.88753 132.049 9.64213 133.141 9.64213C134.245 9.64213 135.229 9.88753 136.093 10.3783C136.969 10.8691 137.647 11.5576 138.127 12.4438C138.619 13.3163 138.865 14.3115 138.865 15.4294C138.865 16.5474 138.619 17.5494 138.127 18.4356C137.647 19.3081 136.969 19.9966 136.093 20.501C135.229 20.9918 134.245 21.2372 133.141 21.2372ZM133.141 17.638C133.609 17.638 133.993 17.4472 134.293 17.0654C134.593 16.6701 134.743 16.1247 134.743 15.4294C134.743 14.7342 134.593 14.1956 134.293 13.8139C133.993 13.4322 133.609 13.2413 133.141 13.2413C132.673 13.2413 132.289 13.4322 131.989 13.8139C131.689 14.1956 131.539 14.7342 131.539 15.4294C131.539 16.1247 131.689 16.6701 131.989 17.0654C132.289 17.4472 132.673 17.638 133.141 17.638Z" fill="white"/>
<path d="M140.123 9.84662H144.173V13.773H146.945V9.84662H150.995V21.0327H146.945V17.3926H144.173V21.0327H140.123V9.84662Z" fill="white"/>
<path d="M164.315 21.0327L164.279 14.5092L161.543 19.7444H159.671L156.935 14.7341V21.0327H153.065V6.71779H156.557L160.661 14.3456L164.657 6.71779H168.149L168.185 21.0327H164.315Z" fill="white"/>
<path d="M180.585 15.4294C180.585 15.4976 180.567 15.8589 180.531 16.5133H173.691C173.835 16.9359 174.075 17.2631 174.411 17.4949C174.747 17.713 175.167 17.8221 175.671 17.8221C176.103 17.8221 176.463 17.7607 176.751 17.638C177.051 17.5153 177.375 17.304 177.723 17.0041L179.847 19.4376C178.887 20.6374 177.453 21.2372 175.545 21.2372C174.357 21.2372 173.313 20.9918 172.413 20.501C171.513 19.9966 170.817 19.3013 170.325 18.4151C169.833 17.529 169.587 16.5337 169.587 15.4294C169.587 14.3115 169.827 13.3163 170.307 12.4438C170.799 11.5576 171.465 10.8691 172.305 10.3783C173.157 9.88753 174.111 9.64213 175.167 9.64213C176.163 9.64213 177.069 9.86707 177.885 10.317C178.713 10.7669 179.367 11.4281 179.847 12.3006C180.339 13.1731 180.585 14.2161 180.585 15.4294ZM175.203 12.7914C174.783 12.7914 174.435 12.9209 174.159 13.18C173.883 13.439 173.703 13.8071 173.619 14.2843H176.787C176.703 13.8207 176.523 13.4594 176.247 13.2004C175.971 12.9277 175.623 12.7914 175.203 12.7914Z" fill="white"/>
<path d="M191.108 13.4458H188.102V21.0327H184.052V13.4458H181.046V9.84662H191.108V13.4458Z" fill="white"/>
<path d="M192.278 9.84662H196.328V14.8977L199.73 9.84662H203.474V21.0327H199.424V15.9611L196.04 21.0327H192.278V9.84662Z" fill="white"/>
<path d="M212.897 15.2249C213.425 15.4431 213.833 15.7635 214.121 16.1861C214.421 16.5951 214.571 17.0791 214.571 17.638C214.571 18.4151 214.331 19.0832 213.851 19.6421C213.371 20.1875 212.723 20.6033 211.907 20.8896C211.091 21.1622 210.185 21.2986 209.189 21.2986C207.497 21.2986 205.961 21.0123 204.581 20.4397L205.607 17.3926C206.627 17.8153 207.785 18.0266 209.081 18.0266C209.513 18.0266 209.855 17.9652 210.107 17.8425C210.359 17.7198 210.485 17.529 210.485 17.2699C210.485 17.0518 210.425 16.9018 210.305 16.82C210.197 16.7246 210.005 16.6769 209.729 16.6769H207.479V14.1002H209.351C209.651 14.1002 209.867 14.0525 209.999 13.9571C210.143 13.8616 210.215 13.7048 210.215 13.4867C210.215 13.2686 210.119 13.105 209.927 12.9959C209.735 12.8868 209.405 12.8323 208.937 12.8323C208.037 12.8323 206.987 13.0641 205.787 13.5276L204.869 10.6033C206.393 9.93524 207.851 9.60123 209.243 9.60123C210.719 9.60123 211.931 9.88071 212.879 10.4397C213.827 10.985 214.301 11.7825 214.301 12.8323C214.301 13.3231 214.175 13.7798 213.923 14.2025C213.671 14.6251 213.329 14.9659 212.897 15.2249Z" fill="white"/>
<path d="M15.9049 0.373529C15.2298 -0.263177 13.6546 0.136028 2.94837 0.00969709C2.93337 0.00969709 2.91837 0.00969709 2.90337 0.00969709H1.98826C1.22317 0.00969709 0.923139 0.59587 0.423081 1.00013C-0.226994 1.61662 0.0880427 2.35944 0.00803346 3.68844C0.00803346 4.52222 0.693113 4.83552 1.09316 5.29031C1.72823 5.89164 2.24829 5.55308 5.44366 5.64909V6.72037L4.69858 7.12968C3.51844 7.77649 4.09851 9.62597 5.44366 9.44405V11.051L4.69858 11.4603C3.50844 12.1122 4.10851 13.9566 5.44366 13.7747V15.3816L4.69858 15.7909C3.50844 16.4428 4.09851 18.2872 5.44366 18.1002V19.7071L4.69858 20.1164C3.49844 20.7734 4.12851 22.6481 5.47867 22.4258C5.51367 22.9008 5.58368 23.3808 5.67869 23.8508C5.66869 23.8609 5.21864 24.058 5.05362 24.5986C4.79359 25.4678 5.52367 26.3167 6.41878 26.1753C6.70881 26.8423 6.90883 27.1455 7.59891 28.4543C7.98896 29.1819 9.02408 29.1819 9.41412 28.4543C9.90918 27.4133 10.9443 26.0489 11.3843 23.5779L12.1744 23.1534C13.3146 22.542 12.8495 20.7936 11.5644 20.829V19.1765C12.2444 18.7925 12.3895 18.7622 12.5945 18.555C13.4246 17.7162 12.7195 16.2962 11.5644 16.4529V14.8459C12.2444 14.4568 12.3895 14.4316 12.5945 14.2244C13.4146 13.3957 12.7295 11.9656 11.5644 12.1273V10.5153L12.3095 10.106C13.5096 9.44911 12.8945 7.61479 11.5644 7.79165V6.17967C12.2745 5.78552 12.3495 5.76531 12.4895 5.64909C14.7197 5.55813 15.2948 5.87648 15.9149 5.29031C16.3249 4.82541 17 4.52727 17 3.68844V1.97035C16.985 1.14162 16.2999 0.828318 15.9049 0.373529ZM8.73904 28.0904C8.63403 28.2875 8.354 28.2875 8.24899 28.0904C7.54891 26.7665 7.36889 26.4936 7.09885 25.8771L10.5092 24.0377C10.0542 25.9479 9.27911 26.9939 8.73904 28.0904ZM10.8043 21.0816L10.1642 21.4252C10.1442 21.4303 10.1292 21.4404 10.1092 21.4505L6.36377 23.4718C6.27876 23.017 6.22875 22.5571 6.20375 22.0973L10.8093 19.5808V21.0816H10.8043ZM10.8043 16.7712L6.18875 19.2978V17.7768L10.8043 15.2502V16.7712ZM10.8043 12.4457L6.18875 14.9723V13.4513L10.8043 10.9246V12.4457ZM10.8043 8.11506L6.18875 10.6417V9.12065L10.8043 6.59404V8.11506ZM6.18375 6.31106V5.65919H7.37889L6.18375 6.31106Z" fill="#E21E23"/>
</svg>
