<svg xmlns="http://www.w3.org/2000/svg" width="372" height="50" viewBox="0 0 372 50"><g><g><g><path fill="#0a0a0a" d="M68.47 10.573v24.943h-7.354v-9.193h-6.793v9.193H46.97V10.573h7.353v8.837h6.793v-8.837zm24.971 0v24.943h-7.229V17.094h-6.636v18.422h-7.229V10.573zm24.951 0v24.943h-7.229V17.094h-6.636v18.422h-7.23V10.573zm24.29 25.513c-2.347 0-4.455-.558-6.324-1.675-1.87-1.116-3.334-2.66-4.394-4.632-1.06-1.995-1.589-4.24-1.589-6.734 0-2.495.53-4.728 1.59-6.7 1.059-1.995 2.523-3.55 4.393-4.667 1.869-1.117 3.977-1.675 6.325-1.675 2.347 0 4.455.558 6.325 1.675 1.869 1.116 3.334 2.672 4.393 4.668 1.06 1.971 1.589 4.204 1.589 6.698 0 2.495-.529 4.74-1.589 6.735-1.059 1.972-2.524 3.516-4.393 4.632-1.87 1.117-3.978 1.675-6.325 1.675zm0-6.806c.915 0 1.735-.25 2.462-.748.748-.523 1.34-1.247 1.776-2.174.436-.95.655-2.055.655-3.314s-.219-2.351-.655-3.278c-.436-.95-1.028-1.674-1.776-2.173a4.114 4.114 0 0 0-2.461-.784c-.914 0-1.745.261-2.493.784-.727.499-1.309 1.223-1.745 2.173-.436.927-.654 2.02-.654 3.279 0 1.258.218 2.363.654 3.313.436.927 1.018 1.651 1.745 2.174a4.394 4.394 0 0 0 2.493.748zm25.922-11.082c2.514 0 4.466.772 5.858 2.317 1.392 1.544 2.088 3.67 2.088 6.378 0 1.829-.436 3.444-1.309 4.846-.852 1.378-2.025 2.446-3.521 3.207-1.495.76-3.167 1.14-5.016 1.14-3.033 0-5.484-1.033-7.354-3.1-1.848-2.067-2.773-5.25-2.773-9.55 0-8.1 3.158-12.803 9.472-14.11l8.476-1.746.934 6.592-7.166 1.46c-1.683.333-2.898.844-3.646 1.533-.727.689-1.173 1.699-1.339 3.029 1.454-1.33 3.219-1.996 5.296-1.996zm-1.9 11.937c.851 0 1.506-.32 1.963-.962.478-.641.716-1.413.716-2.316 0-.998-.249-1.77-.747-2.316-.478-.546-1.122-.82-1.932-.82-.831 0-1.496.286-1.994.856-.499.546-.748 1.318-.748 2.316 0 .95.249 1.734.748 2.352.519.593 1.184.89 1.994.89zm20.799 5.737c-1.89 0-3.593-.427-5.11-1.283a9.466 9.466 0 0 1-3.52-3.598c-.852-1.545-1.278-3.29-1.278-5.238 0-1.948.426-3.682 1.278-5.203.851-1.544 2.025-2.743 3.52-3.599 1.517-.855 3.22-1.282 5.11-1.282 1.911 0 3.615.427 5.11 1.282a8.874 8.874 0 0 1 3.521 3.6c.852 1.52 1.278 3.254 1.278 5.202 0 1.947-.426 3.693-1.278 5.238a9.176 9.176 0 0 1-3.521 3.598c-1.495.856-3.199 1.283-5.11 1.283zm0-6.271c.811 0 1.475-.333 1.995-.998.519-.689.778-1.639.778-2.85 0-1.212-.259-2.15-.778-2.815-.52-.666-1.184-.998-1.995-.998-.81 0-1.474.332-1.994.998-.519.665-.779 1.603-.779 2.814 0 1.212.26 2.162.779 2.851.52.665 1.184.998 1.994.998zm23.46-13.932c1.496 0 2.867.415 4.113 1.247 1.267.807 2.264 1.983 2.991 3.527.748 1.544 1.122 3.326 1.122 5.345 0 2.02-.374 3.8-1.122 5.345-.727 1.52-1.724 2.696-2.991 3.528a7.407 7.407 0 0 1-4.113 1.211c-1.89 0-3.334-.558-4.331-1.675v8.231h-7.042V16.025h6.699v1.603c1.018-1.306 2.576-1.96 4.674-1.96zM209.281 29.6c.81 0 1.474-.333 1.994-.998.519-.665.779-1.603.779-2.815 0-1.211-.26-2.15-.779-2.815-.52-.689-1.184-1.033-1.994-1.033s-1.475.344-1.995 1.033c-.519.665-.778 1.604-.778 2.815 0 1.212.259 2.15.778 2.815.52.665 1.185.998 1.995.998zm20.974 6.271c-1.89 0-3.594-.427-5.11-1.283a9.468 9.468 0 0 1-3.521-3.598c-.852-1.545-1.278-3.29-1.278-5.238 0-1.948.426-3.682 1.278-5.203.852-1.544 2.025-2.743 3.521-3.599 1.516-.855 3.22-1.282 5.11-1.282 1.911 0 3.614.427 5.11 1.282a8.88 8.88 0 0 1 3.521 3.6c.851 1.52 1.277 3.254 1.277 5.202 0 1.947-.426 3.693-1.277 5.238a9.183 9.183 0 0 1-3.521 3.598c-1.496.856-3.199 1.283-5.11 1.283zm0-6.271c.81 0 1.475-.333 1.994-.998.519-.689.779-1.639.779-2.85 0-1.212-.26-2.15-.779-2.815-.519-.666-1.184-.998-1.994-.998s-1.475.332-1.994.998c-.52.665-.779 1.603-.779 2.814 0 1.212.259 2.162.779 2.851.519.665 1.184.998 1.994.998zm12.087-13.576h7.01v6.841h4.799v-6.841h7.01v19.49h-7.01v-6.342h-4.799v6.343h-7.01zm41.875 19.49l-.062-11.366-4.736 9.122h-3.241l-4.736-8.73v10.975h-6.699V10.573h6.045l7.104 13.291 6.917-13.29h6.045l.062 24.942zm28.164-9.762c0 .118-.031.748-.093 1.888h-11.841c.25.736.665 1.307 1.247 1.71.581.38 1.308.57 2.181.57.748 0 1.371-.106 1.869-.32.52-.214 1.08-.582 1.683-1.105l3.676 4.24c-1.661 2.09-4.144 3.136-7.446 3.136-2.057 0-3.864-.427-5.422-1.283a9.207 9.207 0 0 1-3.614-3.634c-.852-1.544-1.278-3.278-1.278-5.202 0-1.948.416-3.682 1.247-5.203.851-1.544 2.004-2.743 3.458-3.599 1.475-.855 3.126-1.282 4.954-1.282 1.724 0 3.293.392 4.705 1.175 1.434.784 2.566 1.936 3.396 3.457.852 1.52 1.278 3.337 1.278 5.452zm-9.316-4.597c-.727 0-1.33.226-1.808.677-.477.451-.789 1.093-.934 1.924h5.484c-.146-.808-.457-1.437-.935-1.888-.478-.476-1.08-.713-1.807-.713zm27.531 1.14h-5.203v13.22h-7.011v-13.22h-5.203v-6.271h17.417zm2.026-6.271h7.01v8.801l5.889-8.801h6.481v19.49h-7.01V26.68l-5.858 8.837h-6.512zm35.693 9.371c.914.38 1.62.938 2.119 1.675.519.713.778 1.556.778 2.53 0 1.354-.415 2.518-1.246 3.492-.831.95-1.952 1.675-3.365 2.173-1.412.476-2.981.713-4.705.713-2.929 0-5.588-.499-7.976-1.496l1.776-5.31c1.765.737 3.77 1.105 6.013 1.105.748 0 1.34-.107 1.776-.32.436-.215.654-.547.654-.999 0-.38-.103-.64-.311-.783-.187-.167-.519-.25-.997-.25h-3.895v-4.49h3.241c.519 0 .893-.083 1.121-.249.25-.166.374-.44.374-.82a.925.925 0 0 0-.498-.855c-.333-.19-.904-.285-1.714-.285-1.558 0-3.376.404-5.453 1.212l-1.589-5.096c2.638-1.164 5.162-1.746 7.572-1.746 2.555 0 4.653.487 6.294 1.461 1.641.95 2.461 2.34 2.461 4.17 0 .854-.218 1.65-.654 2.387a5.075 5.075 0 0 1-1.776 1.781z"/></g><g><path fill="#e21e23" d="M30.303 3.397V6.36c0 1.447-1.203 1.96-1.934 2.762-1.105 1.01-2.13.462-6.106.619-.25.2-.383.235-1.65.915v2.779c2.372-.305 3.468 2.858 1.329 3.99l-1.328.706v2.78c2.077-.28 3.298 2.186 1.836 3.615-.365.357-.624.4-1.836 1.072v2.77c2.059-.27 3.316 2.178 1.836 3.624-.365.358-.624.41-1.836 1.072v2.849c2.29-.061 3.12 2.954 1.087 4.008l-1.408.732c-.784 4.26-2.63 6.612-3.512 8.407-.695 1.255-2.54 1.255-3.236 0-1.23-2.256-1.586-2.78-2.103-3.93-1.596.245-2.897-1.219-2.434-2.717.294-.933 1.097-1.273 1.114-1.29-.169-.81-.294-1.638-.356-2.457-2.407.384-3.53-2.849-1.39-3.981l1.327-.706v-2.77c-2.397.322-3.45-2.858-1.328-3.982l1.328-.706v-2.77c-2.38.313-3.45-2.867-1.328-3.99l1.328-.707v-2.77c-2.397.314-3.431-2.875-1.328-3.99l1.328-.706V9.74c-5.695-.166-6.622.418-7.754-.619C1.235 8.337.014 7.797.014 6.36c.143-2.291-.419-3.572.74-4.635C1.646 1.027 2.18.017 3.544.017h1.712C24.34.235 27.148-.453 28.35.644c.704.784 1.925 1.324 1.952 2.753zm-11.57 38.047l-6.08 3.172c.482 1.063.803 1.533 2.051 3.816.187.34.686.34.874 0 .962-1.89 2.344-3.694 3.155-6.988zm.535-5.096V33.76l-8.21 4.339c.045.793.134 1.586.286 2.37l6.676-3.485c.036-.018.062-.035.098-.044l1.141-.592zm-.009-10.055l-8.227 4.357v2.622l8.227-4.356zm0-7.457l-8.227 4.356v2.622l8.227-4.356zm0-7.467l-8.227 4.356v2.623l8.227-4.356zm-6.106-1.612h-2.13v1.124z"/></g></g></g></svg>