<svg width="32" height="32" viewBox="0 0 32 32" fill="none" xmlns="http://www.w3.org/2000/svg">
<path d="M7.53399 30.4834L7.53402 30.4834L27.5339 3.81692L27.534 3.81681C28.1684 2.97002 27.9973 1.76837 27.1501 1.13368C26.3032 0.498385 25.1025 0.669679 24.4671 1.51657L24.4671 1.5166L4.46723 28.1831C3.83181 29.03 4.00392 30.2315 4.85072 30.8661C5.69691 31.5017 6.89859 31.3303 7.53399 30.4834Z" fill="#E21E23" stroke="#E21E23" stroke-width="0.5"/>
<path d="M7.66663 14.584C11.4871 14.584 14.5833 11.487 14.5833 7.66736C14.5833 3.84769 11.4871 0.750732 7.66663 0.750732C3.84694 0.750732 0.75 3.84767 0.75 7.66736C0.75 11.487 3.84694 14.584 7.66663 14.584ZM7.66663 4.58404C9.37014 4.58404 10.7499 5.96458 10.7499 7.66736C10.7499 9.37014 9.37014 10.7507 7.66663 10.7507C5.96389 10.7507 4.58331 9.3701 4.58331 7.66736C4.58331 5.96462 5.96389 4.58404 7.66663 4.58404Z" fill="#E21E23" stroke="#E21E23" stroke-width="0.5"/>
<path d="M17.417 24.3331C17.417 28.1528 20.5139 31.2498 24.3336 31.2498C28.1541 31.2498 31.2502 28.1528 31.2502 24.3331C31.2502 20.5135 28.1541 17.4165 24.3336 17.4165C20.5139 17.4165 17.417 20.5134 17.417 24.3331ZM27.4169 24.3331C27.4169 26.0359 26.0371 27.4165 24.3336 27.4165C22.6309 27.4165 21.2503 26.0359 21.2503 24.3331C21.2503 22.6304 22.6309 21.2498 24.3336 21.2498C26.0371 21.2498 27.4169 22.6304 27.4169 24.3331Z" fill="#E21E23" stroke="#E21E23" stroke-width="0.5"/>
</svg>
