<svg width="1920" height="180" viewBox="0 0 1920 180" fill="none" xmlns="http://www.w3.org/2000/svg">
<rect width="1920" height="180" fill="#BEC0C4"/>
<mask id="mask0" mask-type="alpha" maskUnits="userSpaceOnUse" x="0" y="0" width="1920" height="180">
<rect width="1920" height="180" fill="#CDD1D9"/>
</mask>
<g mask="url(#mask0)">
<path d="M1853.12 312.256L1630.34 505.042L1437.92 281.775L1660.72 88.9795L1853.12 312.256ZM1881 314.304L1662.77 61L1410 279.686L1628.23 533L1881 314.304Z" fill="#D2D4D8"/>
<path d="M1796.69 308.575L1634.43 448.671L1494.31 286.425L1656.57 146.329L1796.69 308.575ZM1817 310.06L1658.06 126L1474 284.972L1632.93 469L1817 310.06Z" fill="#D2D4D8"/>
<path d="M1059.31 -249.771C1059.31 -46.2593 1224.29 118.719 1427.8 118.719C1631.31 118.719 1796.29 -46.2592 1796.29 -249.771C1796.29 -453.282 1631.31 -618.261 1427.8 -618.261C1224.29 -618.261 1059.31 -453.282 1059.31 -249.771Z" fill="#D2D4D8"/>
<path d="M-224.736 -10.3349L278.653 638.785C278.653 638.785 4.38044 290.164 448.615 16.4623C892.85 -257.24 1174.19 -659.454 973.042 -1087.92L-224.736 -10.3349Z" fill="#BEC0C4"/>
<path opacity="0.5" d="M233.612 118.398C231.003 117.56 227.345 120.64 198.822 133.987C198.783 134.006 198.743 134.026 198.703 134.045L196.279 135.214C194.253 136.192 194.213 138.141 193.41 139.86C192.482 142.338 194.274 143.919 195.775 147.571C196.85 149.798 199.068 149.759 200.714 150.462C203.171 151.256 204.112 149.687 212.7 145.859L214.081 148.721L212.635 150.766C210.342 154.002 214.263 158.2 217.591 155.995L219.662 160.287L218.216 162.332C215.904 165.595 219.87 169.754 223.173 167.561L225.244 171.853L223.797 173.899C221.485 177.161 225.425 181.333 228.747 179.114L230.818 183.406L229.372 185.452C227.04 188.74 231.125 192.942 234.415 190.622C235.12 191.846 235.924 193.039 236.781 194.172C236.768 194.212 235.83 195.314 236.089 196.969C236.521 199.623 239.549 200.957 241.738 199.435C243.365 200.845 244.286 201.4 247.801 204.013C249.772 205.458 252.514 204.135 252.609 201.693C252.579 198.28 253.562 193.313 251.543 186.15L253.089 184.007C255.321 180.916 251.836 176.841 248.477 178.578L246.348 174.165C247.654 172.27 247.999 172.004 248.275 171.188C249.393 167.887 245.695 164.996 242.837 166.891L240.766 162.599C242.066 160.69 242.418 160.438 242.694 159.622C243.798 156.36 240.14 153.417 237.263 155.338L235.185 151.033L236.631 148.987C238.964 145.698 234.97 141.586 231.675 143.758L229.597 139.453C230.97 137.493 231.143 137.343 231.364 136.853C237.154 133.76 239.088 133.875 239.975 131.517C240.462 129.751 241.866 128.092 240.785 125.851L238.571 121.263C237.463 119.068 235.244 119.107 233.612 118.398ZM250.352 201.584C250.328 202.244 249.586 202.602 249.054 202.21C245.493 199.569 244.665 199.07 243.155 197.769L249.818 188.497C251.074 194.18 250.369 197.965 250.352 201.584ZM246.79 180.225L245.537 181.961C245.49 182 245.464 182.046 245.424 182.098L238.108 192.284C237.296 191.178 236.571 190.014 235.912 188.818L244.869 176.21L246.803 180.218L246.79 180.225ZM241.234 168.713L232.265 181.36L230.304 177.298L239.274 164.65L241.234 168.713ZM235.659 157.16L226.69 169.808L224.729 165.745L233.699 153.097L235.659 157.16ZM230.078 145.593L221.108 158.241L219.148 154.179L228.118 141.531L230.078 145.593ZM215.514 146.681L214.674 144.94L217.84 143.413L215.514 146.681Z" fill="#E6E8EC"/>
<path d="M302.683 -100.819L44.4251 122.599L-178.634 -136.144L79.6482 -359.575L302.683 -100.819ZM335 -98.4466L82.0167 -392L-211 -138.566L41.9833 155L335 -98.4466Z" fill="#D2D4D8"/>
<path d="M237.432 -105.149L49.1528 57.4108L-113.432 -130.851L74.8472 -293.411L237.432 -105.149ZM261 -103.426L76.5699 -317L-137 -132.537L47.4179 81L261 -103.426Z" fill="#D2D4D8"/>
<circle opacity="0.5" cx="1101" cy="197" r="45" stroke="#E6E8EC" stroke-width="30"/>
<path opacity="0.5" d="M1822.79 14.9031C1827.04 13.5394 1832.99 18.5532 1879.43 40.2839C1879.49 40.3152 1879.56 40.3464 1879.62 40.3776L1883.57 42.282C1886.87 43.8741 1886.93 47.0474 1888.24 49.8458C1889.75 53.8793 1886.83 56.4537 1884.39 62.399C1882.64 66.0245 1879.03 65.9611 1876.35 67.1061C1872.35 68.3993 1870.82 65.8448 1856.83 59.6127L1854.59 64.2709L1856.94 67.6012C1860.67 72.8696 1854.29 79.7045 1848.87 76.1141L1845.5 83.1014L1847.85 86.4318C1851.62 91.743 1845.16 98.5142 1839.78 94.9447L1836.41 101.932L1838.77 105.262C1842.53 110.574 1836.12 117.366 1830.71 113.753L1827.34 120.741L1829.69 124.071C1833.49 129.425 1826.84 136.266 1821.48 132.489C1820.33 134.482 1819.02 136.423 1817.63 138.269C1817.65 138.334 1819.18 140.127 1818.75 142.822C1818.05 147.142 1813.12 149.314 1809.56 146.836C1806.91 149.133 1805.41 150.035 1799.69 154.29C1796.48 156.642 1792.02 154.488 1791.86 150.513C1791.91 144.956 1790.31 136.869 1793.59 125.209L1791.08 121.719C1787.44 116.688 1793.12 110.053 1798.59 112.881L1802.05 105.696C1799.93 102.611 1799.36 102.177 1798.92 100.85C1797.1 95.4748 1803.12 90.7678 1807.77 93.8528L1811.14 86.8655C1809.02 83.7584 1808.45 83.3467 1808 82.0192C1806.2 76.709 1812.16 71.9164 1816.84 75.0442L1820.23 68.035L1817.87 64.7046C1814.08 59.3506 1820.58 52.6546 1825.94 56.1917L1829.32 49.1824C1827.09 45.9908 1826.81 45.7469 1826.45 44.9501C1817.02 39.9134 1813.87 40.1009 1812.43 36.2617C1811.64 33.3869 1809.35 30.6856 1811.11 27.0382L1814.72 19.5675C1816.52 15.9952 1820.13 16.0585 1822.79 14.9031ZM1795.53 150.335C1795.57 151.411 1796.78 151.994 1797.65 151.355C1803.45 147.055 1804.79 146.243 1807.25 144.125L1796.4 129.03C1794.36 138.282 1795.51 144.444 1795.53 150.335ZM1801.33 115.562L1803.37 118.388C1803.45 118.451 1803.49 118.526 1803.56 118.612L1815.47 135.195C1816.79 133.395 1817.97 131.499 1819.04 129.552L1804.46 109.025L1801.31 115.551L1801.33 115.562ZM1810.38 96.8189L1824.98 117.41L1828.17 110.797L1813.57 90.2051L1810.38 96.8189ZM1819.45 78.0103L1834.06 98.6017L1837.25 91.9879L1822.65 71.3965L1819.45 78.0103ZM1828.54 59.1797L1843.14 79.7711L1846.34 73.1573L1831.73 52.5659L1828.54 59.1797ZM1852.25 60.9509L1853.62 58.1165L1848.47 55.6293L1852.25 60.9509Z" fill="#E6E8EC"/>
</g>
<path d="M1628 140L1628 40C1628 37.2386 1625.76 35 1623 35L278 34.9999C275.239 34.9999 273 37.2385 273 39.9999L273 140C273 142.761 275.239 145 278 145L1623 145C1625.76 145 1628 142.761 1628 140Z" fill="white"/>
<path d="M410.534 103.483L410.534 103.483L430.534 76.8169L430.534 76.8168C431.168 75.97 430.997 74.7684 430.15 74.1337C429.303 73.4984 428.103 73.6697 427.467 74.5166L427.467 74.5166L407.467 101.183C406.832 102.03 407.004 103.232 407.851 103.866C408.697 104.502 409.899 104.33 410.534 103.483Z" fill="#E21E23" stroke="#E21E23" stroke-width="0.5"/>
<path d="M410.667 87.584C414.487 87.584 417.583 84.487 417.583 80.6674C417.583 76.8477 414.487 73.7507 410.667 73.7507C406.847 73.7507 403.75 76.8477 403.75 80.6674C403.75 84.487 406.847 87.584 410.667 87.584ZM410.667 77.584C412.37 77.584 413.75 78.9646 413.75 80.6674C413.75 82.3701 412.37 83.7507 410.667 83.7507C408.964 83.7507 407.583 82.3701 407.583 80.6674C407.583 78.9646 408.964 77.584 410.667 77.584Z" fill="#E21E23" stroke="#E21E23" stroke-width="0.5"/>
<path d="M420.417 97.3331C420.417 101.153 423.514 104.25 427.334 104.25C431.154 104.25 434.25 101.153 434.25 97.3331C434.25 93.5135 431.154 90.4165 427.334 90.4165C423.514 90.4165 420.417 93.5134 420.417 97.3331ZM430.417 97.3331C430.417 99.0359 429.037 100.416 427.334 100.416C425.631 100.416 424.25 99.0359 424.25 97.3331C424.25 95.6304 425.631 94.2498 427.334 94.2498C429.037 94.2498 430.417 95.6304 430.417 97.3331Z" fill="#E21E23" stroke="#E21E23" stroke-width="0.5"/>
<path d="M463.7 94.825C464.5 94.825 465.208 94.7333 465.825 94.55C466.442 94.35 467.017 94.15 467.55 93.95C467.783 93.85 467.95 93.8333 468.05 93.9C468.15 93.95 468.242 94.0667 468.325 94.25L469.175 96.05C469.292 96.2833 469.333 96.4583 469.3 96.575C469.267 96.6917 469.175 96.7917 469.025 96.875C468.125 97.425 467.175 97.8 466.175 98C465.192 98.1833 464.217 98.275 463.25 98.275C461.883 98.275 460.7 98.075 459.7 97.675C458.717 97.2583 457.9 96.6667 457.25 95.9C456.617 95.1333 456.142 94.2 455.825 93.1C455.525 91.9833 455.375 90.7333 455.375 89.35C455.375 87.9833 455.567 86.7417 455.95 85.625C456.35 84.5083 456.9 83.55 457.6 82.75C458.3 81.95 459.142 81.3333 460.125 80.9C461.125 80.4667 462.225 80.25 463.425 80.25C464.275 80.25 465.108 80.325 465.925 80.475C466.742 80.6083 467.542 80.8917 468.325 81.325C468.508 81.425 468.617 81.525 468.65 81.625C468.683 81.725 468.642 81.9167 468.525 82.2L467.75 83.925C467.667 84.1583 467.575 84.3 467.475 84.35C467.392 84.4 467.233 84.3833 467 84.3C466.4 84.0833 465.842 83.925 465.325 83.825C464.808 83.7083 464.233 83.65 463.6 83.65C462.917 83.65 462.308 83.8 461.775 84.1C461.258 84.3833 460.817 84.7833 460.45 85.3C460.1 85.8 459.833 86.4 459.65 87.1C459.467 87.7833 459.375 88.5333 459.375 89.35C459.375 90.1667 459.442 90.9083 459.575 91.575C459.725 92.2417 459.967 92.8167 460.3 93.3C460.65 93.7833 461.1 94.1583 461.65 94.425C462.2 94.6917 462.883 94.825 463.7 94.825ZM475.314 97.6C475.314 97.7833 475.281 97.9 475.214 97.95C475.148 97.9833 475.031 98 474.864 98H472.139C471.989 98 471.873 97.9833 471.789 97.95C471.723 97.9 471.689 97.7833 471.689 97.6V85.275C471.689 85.0917 471.723 84.9833 471.789 84.95C471.873 84.9 471.989 84.875 472.139 84.875H474.864C475.031 84.875 475.148 84.9 475.214 84.95C475.281 84.9833 475.314 85.0917 475.314 85.275V89.625H476.489C476.923 89.625 477.314 89.525 477.664 89.325C478.031 89.1083 478.331 88.65 478.564 87.95L479.439 85.2C479.473 85.05 479.531 84.9583 479.614 84.925C479.698 84.8917 479.781 84.875 479.864 84.875H482.639C482.806 84.875 482.898 84.925 482.914 85.025C482.948 85.125 482.956 85.2167 482.939 85.3L482.014 88.575C481.881 89.0917 481.673 89.5583 481.389 89.975C481.123 90.375 480.739 90.675 480.239 90.875L480.214 90.925C480.581 91.025 480.881 91.15 481.114 91.3C481.348 91.45 481.539 91.625 481.689 91.825C481.856 92.0083 481.989 92.225 482.089 92.475C482.189 92.7083 482.281 92.9583 482.364 93.225L483.639 97.55C483.656 97.6333 483.656 97.7333 483.639 97.85C483.623 97.95 483.514 98 483.314 98H480.439C480.373 98 480.289 97.9833 480.189 97.95C480.106 97.9167 480.048 97.8333 480.014 97.7L478.839 93.85C478.673 93.3167 478.406 92.95 478.039 92.75C477.689 92.5333 477.256 92.425 476.739 92.425H475.314V97.6ZM486.069 85.275C486.069 85.0083 486.219 84.875 486.519 84.875H489.194C489.394 84.875 489.519 84.9 489.569 84.95C489.636 85 489.669 85.1083 489.669 85.275V92.925H489.794C490.111 92.3917 490.369 91.9583 490.569 91.625C490.786 91.275 490.961 90.9917 491.094 90.775C491.228 90.5417 491.344 90.35 491.444 90.2C491.544 90.05 491.644 89.8917 491.744 89.725C492.061 89.2417 492.419 88.675 492.819 88.025C493.219 87.375 493.694 86.6 494.244 85.7C494.361 85.5333 494.469 85.4 494.569 85.3C494.669 85.1833 494.769 85.1 494.869 85.05C494.986 84.9833 495.111 84.9417 495.244 84.925C495.394 84.8917 495.578 84.875 495.794 84.875H497.019C497.486 84.875 497.836 84.975 498.069 85.175C498.303 85.3583 498.419 85.725 498.419 86.275V97.6C498.419 97.7667 498.386 97.875 498.319 97.925C498.253 97.975 498.136 98 497.969 98H495.269C495.086 98 494.961 97.9833 494.894 97.95C494.828 97.9 494.794 97.7833 494.794 97.6V90.1H494.669C494.286 90.6833 493.919 91.2667 493.569 91.85C493.236 92.4167 492.886 92.9833 492.519 93.55C492.136 94.15 491.753 94.7583 491.369 95.375C490.986 95.975 490.594 96.575 490.194 97.175C489.961 97.525 489.744 97.75 489.544 97.85C489.344 97.95 489.044 98 488.644 98H487.469C486.886 98 486.503 97.8833 486.319 97.65C486.153 97.4167 486.069 97.0667 486.069 96.6V85.275ZM510.244 87.85H507.144C506.911 89.9 506.678 91.5167 506.444 92.7C506.211 93.8667 505.953 94.6917 505.669 95.175H510.244V87.85ZM501.919 95.15C502.386 94.7167 502.719 94.15 502.919 93.45C503.119 92.7333 503.261 91.9333 503.344 91.05L504.019 86.3C504.086 85.8667 504.228 85.525 504.444 85.275C504.678 85.0083 505.128 84.875 505.794 84.875H512.369C513.003 84.875 513.411 85.0083 513.594 85.275C513.794 85.525 513.894 85.9 513.894 86.4V95.15L514.744 95.225C515.078 95.2583 515.294 95.3667 515.394 95.55C515.511 95.7333 515.569 95.9583 515.569 96.225L515.269 101.475C515.269 101.725 515.136 101.85 514.869 101.85H512.669C512.519 101.85 512.419 101.817 512.369 101.75C512.319 101.683 512.286 101.583 512.269 101.45L512.119 98H503.744C503.711 98.5833 503.678 99.1583 503.644 99.725C503.611 100.292 503.578 100.867 503.544 101.45C503.528 101.6 503.494 101.7 503.444 101.75C503.394 101.817 503.286 101.85 503.119 101.85H500.944C500.694 101.85 500.569 101.725 500.569 101.475L500.269 96.25C500.269 95.9667 500.328 95.7333 500.444 95.55C500.561 95.3667 500.786 95.2583 501.119 95.225L501.919 95.15ZM521.628 97.6C521.628 97.7833 521.595 97.9 521.528 97.95C521.461 97.9833 521.345 98 521.178 98H518.453C518.303 98 518.186 97.9833 518.103 97.95C518.036 97.9 518.003 97.7833 518.003 97.6V85.275C518.003 85.0917 518.036 84.9833 518.103 84.95C518.186 84.9 518.303 84.875 518.453 84.875H521.178C521.345 84.875 521.461 84.9 521.528 84.95C521.595 84.9833 521.628 85.0917 521.628 85.275V89.625H522.803C523.236 89.625 523.628 89.525 523.978 89.325C524.345 89.1083 524.645 88.65 524.878 87.95L525.753 85.2C525.786 85.05 525.845 84.9583 525.928 84.925C526.011 84.8917 526.095 84.875 526.178 84.875H528.953C529.12 84.875 529.211 84.925 529.228 85.025C529.261 85.125 529.27 85.2167 529.253 85.3L528.328 88.575C528.195 89.0917 527.986 89.5583 527.703 89.975C527.436 90.375 527.053 90.675 526.553 90.875L526.528 90.925C526.895 91.025 527.195 91.15 527.428 91.3C527.661 91.45 527.853 91.625 528.003 91.825C528.17 92.0083 528.303 92.225 528.403 92.475C528.503 92.7083 528.595 92.9583 528.678 93.225L529.953 97.55C529.97 97.6333 529.97 97.7333 529.953 97.85C529.936 97.95 529.828 98 529.628 98H526.753C526.686 98 526.603 97.9833 526.503 97.95C526.42 97.9167 526.361 97.8333 526.328 97.7L525.153 93.85C524.986 93.3167 524.72 92.95 524.353 92.75C524.003 92.5333 523.57 92.425 523.053 92.425H521.628V97.6ZM532.383 85.275C532.383 85.0083 532.533 84.875 532.833 84.875H535.508C535.708 84.875 535.833 84.9 535.883 84.95C535.949 85 535.983 85.1083 535.983 85.275V92.925H536.108C536.424 92.3917 536.683 91.9583 536.883 91.625C537.099 91.275 537.274 90.9917 537.408 90.775C537.541 90.5417 537.658 90.35 537.758 90.2C537.858 90.05 537.958 89.8917 538.058 89.725C538.374 89.2417 538.733 88.675 539.133 88.025C539.533 87.375 540.008 86.6 540.558 85.7C540.674 85.5333 540.783 85.4 540.883 85.3C540.983 85.1833 541.083 85.1 541.183 85.05C541.299 84.9833 541.424 84.9417 541.558 84.925C541.708 84.8917 541.891 84.875 542.108 84.875H543.333C543.799 84.875 544.149 84.975 544.383 85.175C544.616 85.3583 544.733 85.725 544.733 86.275V97.6C544.733 97.7667 544.699 97.875 544.633 97.925C544.566 97.975 544.449 98 544.283 98H541.583C541.399 98 541.274 97.9833 541.208 97.95C541.141 97.9 541.108 97.7833 541.108 97.6V90.1H540.983C540.599 90.6833 540.233 91.2667 539.883 91.85C539.549 92.4167 539.199 92.9833 538.833 93.55C538.449 94.15 538.066 94.7583 537.683 95.375C537.299 95.975 536.908 96.575 536.508 97.175C536.274 97.525 536.058 97.75 535.858 97.85C535.658 97.95 535.358 98 534.958 98H533.783C533.199 98 532.816 97.8833 532.633 97.65C532.466 97.4167 532.383 97.0667 532.383 96.6V85.275ZM555.186 85.275C555.186 85.0083 555.336 84.875 555.636 84.875H558.311C558.511 84.875 558.636 84.9 558.686 84.95C558.752 85 558.786 85.1083 558.786 85.275V92.925H558.911C559.227 92.3917 559.486 91.9583 559.686 91.625C559.902 91.275 560.077 90.9917 560.211 90.775C560.344 90.5417 560.461 90.35 560.561 90.2C560.661 90.05 560.761 89.8917 560.861 89.725C561.177 89.2417 561.536 88.675 561.936 88.025C562.336 87.375 562.811 86.6 563.361 85.7C563.477 85.5333 563.586 85.4 563.686 85.3C563.786 85.1833 563.886 85.1 563.986 85.05C564.102 84.9833 564.227 84.9417 564.361 84.925C564.511 84.8917 564.694 84.875 564.911 84.875H566.136C566.602 84.875 566.952 84.975 567.186 85.175C567.419 85.3583 567.536 85.725 567.536 86.275V97.6C567.536 97.7667 567.502 97.875 567.436 97.925C567.369 97.975 567.252 98 567.086 98H564.386C564.202 98 564.077 97.9833 564.011 97.95C563.944 97.9 563.911 97.7833 563.911 97.6V90.1H563.786C563.402 90.6833 563.036 91.2667 562.686 91.85C562.352 92.4167 562.002 92.9833 561.636 93.55C561.252 94.15 560.869 94.7583 560.486 95.375C560.102 95.975 559.711 96.575 559.311 97.175C559.077 97.525 558.861 97.75 558.661 97.85C558.461 97.95 558.161 98 557.761 98H556.586C556.002 98 555.619 97.8833 555.436 97.65C555.269 97.4167 555.186 97.0667 555.186 96.6V85.275ZM585.188 85.825C586.122 85.825 586.905 85.9833 587.538 86.3C588.172 86.6167 588.688 87.05 589.088 87.6C589.488 88.15 589.772 88.7917 589.938 89.525C590.122 90.2583 590.213 91.0333 590.213 91.85C590.213 92.65 590.097 93.4333 589.863 94.2C589.647 94.95 589.28 95.625 588.763 96.225C588.247 96.825 587.572 97.3167 586.738 97.7C585.922 98.0667 584.905 98.2583 583.688 98.275C582.322 98.275 581.222 98.0833 580.388 97.7C579.572 97.3 578.938 96.775 578.488 96.125C578.038 95.475 577.738 94.7333 577.588 93.9C577.455 93.05 577.388 92.1667 577.388 91.25C577.388 89.8667 577.455 88.5917 577.588 87.425C577.722 86.2583 577.988 85.225 578.388 84.325C578.805 83.4083 579.38 82.6333 580.113 82C580.863 81.3667 581.847 80.8917 583.063 80.575C583.647 80.4083 584.338 80.25 585.138 80.1C585.955 79.9333 586.822 79.7583 587.738 79.575C587.872 79.5417 587.98 79.5333 588.063 79.55C588.163 79.5667 588.23 79.6667 588.263 79.85L588.788 81.95C588.855 82.1667 588.847 82.3083 588.763 82.375C588.68 82.425 588.597 82.4667 588.513 82.5C587.93 82.65 587.422 82.7667 586.988 82.85C586.555 82.9333 586.122 83.025 585.688 83.125C584.905 83.2917 584.263 83.475 583.763 83.675C583.263 83.8583 582.855 84.0833 582.538 84.35C582.238 84.6167 582.013 84.95 581.863 85.35C581.713 85.7333 581.613 86.2083 581.563 86.775C581.58 86.775 581.597 86.7833 581.613 86.8L581.663 86.85C582.247 86.4667 582.838 86.2 583.438 86.05C584.055 85.9 584.638 85.825 585.188 85.825ZM583.713 95.25C584.247 95.25 584.688 95.1583 585.038 94.975C585.388 94.775 585.663 94.5167 585.863 94.2C586.063 93.8833 586.205 93.5333 586.288 93.15C586.372 92.7667 586.413 92.375 586.413 91.975C586.413 91.6083 586.38 91.2417 586.313 90.875C586.247 90.4917 586.122 90.15 585.938 89.85C585.772 89.55 585.538 89.3083 585.238 89.125C584.938 88.925 584.547 88.825 584.063 88.825C583.63 88.825 583.172 88.8917 582.688 89.025C582.205 89.1583 581.772 89.3417 581.388 89.575C581.322 90.1083 581.28 90.5583 581.263 90.925C581.247 91.275 581.238 91.6417 581.238 92.025C581.238 92.475 581.272 92.9 581.338 93.3C581.422 93.6833 581.555 94.025 581.738 94.325C581.922 94.6083 582.172 94.8333 582.488 95C582.805 95.1667 583.213 95.25 583.713 95.25ZM604.884 91.375C604.884 93.575 604.359 95.275 603.309 96.475C602.259 97.675 600.659 98.275 598.509 98.275C596.342 98.275 594.759 97.675 593.759 96.475C592.759 95.275 592.259 93.5917 592.259 91.425C592.259 90.3583 592.4 89.4 592.684 88.55C592.984 87.6833 593.4 86.9583 593.934 86.375C594.484 85.7917 595.142 85.3417 595.909 85.025C596.692 84.7083 597.575 84.55 598.559 84.55C600.659 84.55 602.234 85.1583 603.284 86.375C604.35 87.575 604.884 89.2417 604.884 91.375ZM601.109 91.45C601.109 90.8833 601.067 90.3667 600.984 89.9C600.9 89.4333 600.759 89.0333 600.559 88.7C600.359 88.3667 600.1 88.1083 599.784 87.925C599.467 87.725 599.075 87.625 598.609 87.625C597.725 87.625 597.067 87.9667 596.634 88.65C596.217 89.3167 596.009 90.225 596.009 91.375C596.009 92.625 596.2 93.575 596.584 94.225C596.984 94.875 597.634 95.2 598.534 95.2C599 95.2 599.392 95.1083 599.709 94.925C600.042 94.725 600.309 94.4583 600.509 94.125C600.725 93.775 600.875 93.375 600.959 92.925C601.059 92.475 601.109 91.9833 601.109 91.45ZM611.252 97.5C611.252 97.7167 611.21 97.8583 611.127 97.925C611.06 97.975 610.91 98 610.677 98H608.177C607.81 98 607.627 97.8333 607.627 97.5V85.35C607.627 85.0333 607.81 84.875 608.177 84.875H610.677C610.91 84.875 611.06 84.9083 611.127 84.975C611.21 85.025 611.252 85.15 611.252 85.35V89.625H615.927V85.35C615.927 85.0333 616.11 84.875 616.477 84.875H618.977C619.21 84.875 619.36 84.9083 619.427 84.975C619.494 85.025 619.527 85.15 619.527 85.35V97.5C619.527 97.7167 619.494 97.8583 619.427 97.925C619.36 97.975 619.21 98 618.977 98H616.477C616.11 98 615.927 97.8333 615.927 97.5V92.475H611.252V97.5ZM629.863 100.175C629.48 101.325 628.93 102.142 628.213 102.625C627.496 103.125 626.546 103.375 625.363 103.375C625.03 103.375 624.638 103.35 624.188 103.3C623.755 103.25 623.321 103.158 622.888 103.025C622.688 102.975 622.555 102.917 622.488 102.85C622.438 102.783 622.438 102.658 622.488 102.475L622.913 100.5C622.963 100.3 623.021 100.192 623.088 100.175C623.155 100.158 623.28 100.167 623.463 100.2C623.73 100.25 623.955 100.283 624.138 100.3C624.321 100.317 624.505 100.325 624.688 100.325C625.271 100.325 625.73 100.225 626.063 100.025C626.396 99.8417 626.655 99.4583 626.838 98.875L627.288 97.525H626.563C626.18 97.525 625.905 97.4583 625.738 97.325C625.571 97.1917 625.413 96.9 625.263 96.45L621.463 85.35C621.396 85.1667 621.396 85.0417 621.463 84.975C621.546 84.9083 621.655 84.875 621.788 84.875H624.713C624.963 84.875 625.13 84.9083 625.213 84.975C625.313 85.025 625.388 85.1417 625.438 85.325L626.863 90.375L628.038 94.725H628.188L629.463 90.3L630.963 85.375C631.013 85.1917 631.08 85.0667 631.163 85C631.246 84.9167 631.413 84.875 631.663 84.875H634.638C634.921 84.875 635.013 85.0083 634.913 85.275L629.863 100.2V100.175ZM642.828 95.025C643.361 95.025 643.878 94.9667 644.378 94.85C644.895 94.7167 645.336 94.5833 645.703 94.45C645.92 94.3667 646.061 94.3417 646.128 94.375C646.211 94.3917 646.286 94.4917 646.353 94.675L647.053 96.55C647.136 96.7167 647.17 96.85 647.153 96.95C647.153 97.05 647.061 97.15 646.878 97.25C646.145 97.65 645.361 97.9167 644.528 98.05C643.695 98.2 642.936 98.275 642.253 98.275C640.286 98.275 638.795 97.7083 637.778 96.575C636.761 95.4417 636.253 93.7417 636.253 91.475C636.253 90.4083 636.395 89.45 636.678 88.6C636.978 87.7333 637.395 87 637.928 86.4C638.461 85.8 639.111 85.3417 639.878 85.025C640.661 84.7083 641.528 84.55 642.478 84.55C643.178 84.55 643.87 84.625 644.553 84.775C645.236 84.9083 645.861 85.1167 646.428 85.4C646.645 85.5 646.761 85.5917 646.778 85.675C646.811 85.7583 646.786 85.9 646.703 86.1L646.003 88.025C645.92 88.2083 645.828 88.3083 645.728 88.325C645.628 88.3417 645.461 88.3167 645.228 88.25C644.795 88.1167 644.37 88.0083 643.953 87.925C643.536 87.8417 643.136 87.8 642.753 87.8C642.253 87.8 641.828 87.9 641.478 88.1C641.145 88.3 640.87 88.5667 640.653 88.9C640.436 89.2333 640.278 89.625 640.178 90.075C640.078 90.5083 640.028 90.975 640.028 91.475C640.028 91.9917 640.07 92.4667 640.153 92.9C640.236 93.3333 640.386 93.7083 640.603 94.025C640.82 94.3417 641.103 94.5917 641.453 94.775C641.82 94.9417 642.278 95.025 642.828 95.025ZM651.096 98C650.446 98 650.021 97.875 649.821 97.625C649.621 97.3583 649.521 97 649.521 96.55V85.35C649.521 85.0333 649.705 84.875 650.071 84.875H652.596C652.83 84.875 652.98 84.9083 653.046 84.975C653.113 85.025 653.146 85.15 653.146 85.35V88.975H656.246C657.463 88.975 658.421 89.15 659.121 89.5C659.838 89.8333 660.38 90.2417 660.746 90.725C661.113 91.2083 661.338 91.7083 661.421 92.225C661.521 92.725 661.571 93.1417 661.571 93.475C661.571 94.125 661.446 94.725 661.196 95.275C660.946 95.825 660.596 96.3 660.146 96.7C659.713 97.1 659.196 97.4167 658.596 97.65C657.996 97.8833 657.346 98 656.646 98H651.096ZM657.846 93.425C657.846 92.9583 657.696 92.5667 657.396 92.25C657.113 91.9167 656.68 91.75 656.096 91.75H653.146V95.15H656.071C656.421 95.15 656.713 95.0917 656.946 94.975C657.18 94.8583 657.363 94.7167 657.496 94.55C657.63 94.3667 657.721 94.175 657.771 93.975C657.821 93.775 657.846 93.5917 657.846 93.425ZM666.571 97.5C666.571 97.7167 666.538 97.8583 666.471 97.925C666.405 97.975 666.255 98 666.021 98H663.521C663.155 98 662.971 97.8333 662.971 97.5V85.35C662.971 85.0333 663.155 84.875 663.521 84.875H666.021C666.255 84.875 666.405 84.9083 666.471 84.975C666.538 85.025 666.571 85.15 666.571 85.35V97.5ZM689.087 97.525C689.087 97.7083 689.054 97.8333 688.987 97.9C688.921 97.9667 688.771 98 688.537 98H685.937C685.587 98 685.412 97.8417 685.412 97.525V87.825H680.612V97.525C680.612 97.7083 680.579 97.8333 680.512 97.9C680.462 97.9667 680.321 98 680.087 98H677.512C677.162 98 676.987 97.8417 676.987 97.525V86.275C676.987 85.875 677.079 85.5417 677.262 85.275C677.446 85.0083 677.829 84.875 678.412 84.875H687.662C688.246 84.875 688.629 85.0083 688.812 85.275C688.996 85.5417 689.087 85.875 689.087 86.275V97.525ZM695.994 102.675C695.994 102.858 695.96 102.975 695.894 103.025C695.844 103.075 695.702 103.1 695.469 103.1H692.869C692.685 103.1 692.552 103.075 692.469 103.025C692.385 102.975 692.344 102.858 692.344 102.675V86.375C692.344 86.1917 692.369 86.05 692.419 85.95C692.485 85.8333 692.627 85.7167 692.844 85.6C693.644 85.2333 694.535 84.975 695.519 84.825C696.519 84.675 697.469 84.6 698.369 84.6C699.552 84.6 700.544 84.7833 701.344 85.15C702.16 85.5 702.81 85.9833 703.294 86.6C703.794 87.2 704.152 87.9167 704.369 88.75C704.585 89.5833 704.694 90.475 704.694 91.425C704.694 92.3583 704.577 93.2417 704.344 94.075C704.11 94.8917 703.752 95.6083 703.269 96.225C702.785 96.8417 702.169 97.3333 701.419 97.7C700.685 98.05 699.819 98.225 698.819 98.225C698.319 98.225 697.852 98.2 697.419 98.15C697.002 98.1167 696.527 98.0417 695.994 97.925V102.675ZM700.894 91.35C700.894 90.6667 700.827 90.0917 700.694 89.625C700.56 89.1583 700.36 88.7833 700.094 88.5C699.844 88.2167 699.527 88.0167 699.144 87.9C698.777 87.7833 698.36 87.725 697.894 87.725C697.66 87.725 697.352 87.75 696.969 87.8C696.602 87.85 696.277 87.9167 695.994 88V94.825C696.427 94.9417 696.81 95.0167 697.144 95.05C697.494 95.0833 697.802 95.1 698.069 95.1C698.902 95.1 699.577 94.8167 700.094 94.25C700.627 93.6833 700.894 92.7167 700.894 91.35ZM707.432 85.275C707.432 85.0083 707.582 84.875 707.882 84.875H710.557C710.757 84.875 710.882 84.9 710.932 84.95C710.998 85 711.032 85.1083 711.032 85.275V92.925H711.157C711.473 92.3917 711.732 91.9583 711.932 91.625C712.148 91.275 712.323 90.9917 712.457 90.775C712.59 90.5417 712.707 90.35 712.807 90.2C712.907 90.05 713.007 89.8917 713.107 89.725C713.423 89.2417 713.782 88.675 714.182 88.025C714.582 87.375 715.057 86.6 715.607 85.7C715.723 85.5333 715.832 85.4 715.932 85.3C716.032 85.1833 716.132 85.1 716.232 85.05C716.348 84.9833 716.473 84.9417 716.607 84.925C716.757 84.8917 716.94 84.875 717.157 84.875H718.382C718.848 84.875 719.198 84.975 719.432 85.175C719.665 85.3583 719.782 85.725 719.782 86.275V97.6C719.782 97.7667 719.748 97.875 719.682 97.925C719.615 97.975 719.498 98 719.332 98H716.632C716.448 98 716.323 97.9833 716.257 97.95C716.19 97.9 716.157 97.7833 716.157 97.6V90.1H716.032C715.648 90.6833 715.282 91.2667 714.932 91.85C714.598 92.4167 714.248 92.9833 713.882 93.55C713.498 94.15 713.115 94.7583 712.732 95.375C712.348 95.975 711.957 96.575 711.557 97.175C711.323 97.525 711.107 97.75 710.907 97.85C710.707 97.95 710.407 98 710.007 98H708.832C708.248 98 707.865 97.8833 707.682 97.65C707.515 97.4167 707.432 97.0667 707.432 96.6V85.275ZM742.359 91.375C742.359 93.575 741.834 95.275 740.784 96.475C739.734 97.675 738.134 98.275 735.984 98.275C733.818 98.275 732.234 97.675 731.234 96.475C730.234 95.275 729.734 93.5917 729.734 91.425C729.734 90.3583 729.876 89.4 730.159 88.55C730.459 87.6833 730.876 86.9583 731.409 86.375C731.959 85.7917 732.618 85.3417 733.384 85.025C734.168 84.7083 735.051 84.55 736.034 84.55C738.134 84.55 739.709 85.1583 740.759 86.375C741.826 87.575 742.359 89.2417 742.359 91.375ZM738.584 91.45C738.584 90.8833 738.543 90.3667 738.459 89.9C738.376 89.4333 738.234 89.0333 738.034 88.7C737.834 88.3667 737.576 88.1083 737.259 87.925C736.943 87.725 736.551 87.625 736.084 87.625C735.201 87.625 734.543 87.9667 734.109 88.65C733.693 89.3167 733.484 90.225 733.484 91.375C733.484 92.625 733.676 93.575 734.059 94.225C734.459 94.875 735.109 95.2 736.009 95.2C736.476 95.2 736.868 95.1083 737.184 94.925C737.518 94.725 737.784 94.4583 737.984 94.125C738.201 93.775 738.351 93.375 738.434 92.925C738.534 92.475 738.584 91.9833 738.584 91.45ZM754.928 102.6C754.928 102.783 754.894 102.9 754.828 102.95C754.778 103.017 754.636 103.05 754.403 103.05H751.803C751.619 103.05 751.486 103.017 751.403 102.95C751.336 102.9 751.303 102.783 751.303 102.6V98.275C750.219 98.2083 749.261 97.9917 748.428 97.625C747.594 97.2583 746.894 96.775 746.328 96.175C745.761 95.575 745.328 94.8667 745.028 94.05C744.744 93.2333 744.603 92.3417 744.603 91.375C744.603 90.3083 744.778 89.3667 745.128 88.55C745.494 87.7167 745.978 87.0167 746.578 86.45C747.194 85.8667 747.903 85.425 748.703 85.125C749.519 84.8083 750.386 84.6333 751.303 84.6V80.175C751.303 79.9917 751.336 79.875 751.403 79.825C751.486 79.7583 751.619 79.725 751.803 79.725H754.403C754.636 79.725 754.778 79.75 754.828 79.8C754.894 79.85 754.928 79.975 754.928 80.175V84.65C755.878 84.6833 756.753 84.85 757.553 85.15C758.369 85.45 759.069 85.8917 759.653 86.475C760.253 87.0417 760.719 87.7417 761.053 88.575C761.403 89.3917 761.578 90.325 761.578 91.375C761.578 92.3417 761.436 93.2333 761.153 94.05C760.869 94.8667 760.444 95.5833 759.878 96.2C759.328 96.8 758.636 97.2833 757.803 97.65C756.986 98.0167 756.028 98.2333 754.928 98.3V102.6ZM748.178 91.525C748.178 92.025 748.236 92.5 748.353 92.95C748.486 93.4 748.678 93.8083 748.928 94.175C749.194 94.5417 749.519 94.8417 749.903 95.075C750.303 95.3083 750.769 95.45 751.303 95.5V87.65C750.286 87.7333 749.511 88.1167 748.978 88.8C748.444 89.4667 748.178 90.375 748.178 91.525ZM758.028 91.55C758.028 90.4 757.769 89.4917 757.253 88.825C756.753 88.1583 755.978 87.7833 754.928 87.7V95.5C755.478 95.4333 755.944 95.2833 756.328 95.05C756.728 94.8167 757.053 94.525 757.303 94.175C757.553 93.825 757.736 93.425 757.853 92.975C757.969 92.525 758.028 92.05 758.028 91.55ZM776.441 91.375C776.441 93.575 775.916 95.275 774.866 96.475C773.816 97.675 772.216 98.275 770.066 98.275C767.9 98.275 766.316 97.675 765.316 96.475C764.316 95.275 763.816 93.5917 763.816 91.425C763.816 90.3583 763.958 89.4 764.241 88.55C764.541 87.6833 764.958 86.9583 765.491 86.375C766.041 85.7917 766.7 85.3417 767.466 85.025C768.25 84.7083 769.133 84.55 770.116 84.55C772.216 84.55 773.791 85.1583 774.841 86.375C775.908 87.575 776.441 89.2417 776.441 91.375ZM772.666 91.45C772.666 90.8833 772.625 90.3667 772.541 89.9C772.458 89.4333 772.316 89.0333 772.116 88.7C771.916 88.3667 771.658 88.1083 771.341 87.925C771.025 87.725 770.633 87.625 770.166 87.625C769.283 87.625 768.625 87.9667 768.191 88.65C767.775 89.3167 767.566 90.225 767.566 91.375C767.566 92.625 767.758 93.575 768.141 94.225C768.541 94.875 769.191 95.2 770.091 95.2C770.558 95.2 770.95 95.1083 771.266 94.925C771.6 94.725 771.866 94.4583 772.066 94.125C772.283 93.775 772.433 93.375 772.516 92.925C772.616 92.475 772.666 91.9833 772.666 91.45ZM782.835 102.675C782.835 102.858 782.801 102.975 782.735 103.025C782.685 103.075 782.543 103.1 782.31 103.1H779.71C779.526 103.1 779.393 103.075 779.31 103.025C779.226 102.975 779.185 102.858 779.185 102.675V86.375C779.185 86.1917 779.21 86.05 779.26 85.95C779.326 85.8333 779.468 85.7167 779.685 85.6C780.485 85.2333 781.376 84.975 782.36 84.825C783.36 84.675 784.31 84.6 785.21 84.6C786.393 84.6 787.385 84.7833 788.185 85.15C789.001 85.5 789.651 85.9833 790.135 86.6C790.635 87.2 790.993 87.9167 791.21 88.75C791.426 89.5833 791.535 90.475 791.535 91.425C791.535 92.3583 791.418 93.2417 791.185 94.075C790.951 94.8917 790.593 95.6083 790.11 96.225C789.626 96.8417 789.01 97.3333 788.26 97.7C787.526 98.05 786.66 98.225 785.66 98.225C785.16 98.225 784.693 98.2 784.26 98.15C783.843 98.1167 783.368 98.0417 782.835 97.925V102.675ZM787.735 91.35C787.735 90.6667 787.668 90.0917 787.535 89.625C787.401 89.1583 787.201 88.7833 786.935 88.5C786.685 88.2167 786.368 88.0167 785.985 87.9C785.618 87.7833 785.201 87.725 784.735 87.725C784.501 87.725 784.193 87.75 783.81 87.8C783.443 87.85 783.118 87.9167 782.835 88V94.825C783.268 94.9417 783.651 95.0167 783.985 95.05C784.335 95.0833 784.643 95.1 784.91 95.1C785.743 95.1 786.418 94.8167 786.935 94.25C787.468 93.6833 787.735 92.7167 787.735 91.35ZM806.272 90.55L805.247 92.95L804.022 95.6C803.872 95.9333 803.697 96.1583 803.497 96.275C803.297 96.3917 803.031 96.45 802.697 96.45H801.472C801.089 96.45 800.806 96.3917 800.622 96.275C800.456 96.1583 800.297 95.9333 800.147 95.6L798.947 93L797.947 90.7H797.847V97.525C797.847 97.7417 797.806 97.875 797.722 97.925C797.639 97.975 797.497 98 797.297 98H794.822C794.639 98 794.497 97.975 794.397 97.925C794.314 97.875 794.272 97.7417 794.272 97.525V86.325C794.272 85.3583 794.772 84.875 795.772 84.875H797.322C797.672 84.875 797.972 84.9333 798.222 85.05C798.489 85.1667 798.722 85.4417 798.922 85.875L800.722 89.675L801.997 92.55H802.147L803.572 89.425L805.247 86C805.447 85.5667 805.672 85.275 805.922 85.125C806.172 84.9583 806.539 84.875 807.022 84.875H808.447C809.447 84.875 809.947 85.3417 809.947 86.275V97.525C809.947 97.7417 809.906 97.875 809.822 97.925C809.756 97.975 809.614 98 809.397 98H806.947C806.764 98 806.622 97.975 806.522 97.925C806.439 97.875 806.397 97.7417 806.397 97.525V90.55H806.272ZM823.343 84.875C823.927 84.875 824.318 85 824.518 85.25C824.735 85.4833 824.843 85.8667 824.843 86.4V97.525C824.843 97.725 824.802 97.8583 824.718 97.925C824.652 97.975 824.502 98 824.268 98H821.743C821.51 98 821.352 97.9667 821.268 97.9C821.202 97.8167 821.168 97.6833 821.168 97.5V87.825H818.093L818.018 89.125C817.935 90.575 817.827 91.825 817.693 92.875C817.56 93.925 817.335 94.825 817.018 95.575C816.702 96.3083 816.252 96.9083 815.668 97.375C815.085 97.8417 814.31 98.225 813.343 98.525C813.11 98.6083 812.943 98.6167 812.843 98.55C812.743 98.5 812.66 98.3917 812.593 98.225L811.918 96.525C811.835 96.3083 811.802 96.1583 811.818 96.075C811.852 95.975 811.977 95.8667 812.193 95.75C812.643 95.55 813.002 95.325 813.268 95.075C813.552 94.825 813.777 94.4667 813.943 94C814.127 93.5333 814.268 92.9167 814.368 92.15C814.468 91.3667 814.56 90.3417 814.643 89.075L814.818 86.35C814.852 85.8 814.977 85.4167 815.193 85.2C815.427 84.9833 815.818 84.875 816.368 84.875H823.343ZM833.786 84.55C835.736 84.55 837.194 85.0417 838.161 86.025C839.144 86.9917 839.636 88.3833 839.636 90.2C839.636 91.0667 839.469 91.6583 839.136 91.975C838.803 92.2917 838.344 92.45 837.761 92.45H831.361C831.378 92.9833 831.461 93.425 831.611 93.775C831.778 94.125 831.994 94.4083 832.261 94.625C832.528 94.8417 832.836 94.9917 833.186 95.075C833.553 95.1583 833.944 95.2 834.361 95.2C834.844 95.2 835.336 95.1417 835.836 95.025C836.336 94.9083 836.803 94.7583 837.236 94.575C837.436 94.5083 837.569 94.4917 837.636 94.525C837.719 94.5417 837.794 94.6167 837.861 94.75L838.661 96.55C838.728 96.7 838.736 96.8167 838.686 96.9C838.653 96.9833 838.569 97.0667 838.436 97.15C837.819 97.55 837.103 97.8333 836.286 98C835.469 98.1833 834.711 98.275 834.011 98.275C831.828 98.275 830.211 97.7333 829.161 96.65C828.111 95.5667 827.586 93.85 827.586 91.5C827.586 90.4 827.728 89.425 828.011 88.575C828.311 87.7083 828.728 86.975 829.261 86.375C829.811 85.775 830.461 85.325 831.211 85.025C831.978 84.7083 832.836 84.55 833.786 84.55ZM833.861 87.55C833.178 87.55 832.619 87.7917 832.186 88.275C831.753 88.7583 831.503 89.375 831.436 90.125H836.111C836.111 89.7583 836.069 89.4167 835.986 89.1C835.919 88.7833 835.803 88.5167 835.636 88.3C835.469 88.0667 835.244 87.8833 834.961 87.75C834.678 87.6167 834.311 87.55 833.861 87.55ZM845.92 97.5C845.92 97.7167 845.878 97.8583 845.795 97.925C845.728 97.975 845.578 98 845.345 98H842.845C842.478 98 842.295 97.8333 842.295 97.5V85.35C842.295 85.0333 842.478 84.875 842.845 84.875H845.345C845.578 84.875 845.728 84.9083 845.795 84.975C845.878 85.025 845.92 85.15 845.92 85.35V89.625H850.595V85.35C850.595 85.0333 850.778 84.875 851.145 84.875H853.645C853.878 84.875 854.028 84.9083 854.095 84.975C854.162 85.025 854.195 85.15 854.195 85.35V97.5C854.195 97.7167 854.162 97.8583 854.095 97.925C854.028 97.975 853.878 98 853.645 98H851.145C850.778 98 850.595 97.8333 850.595 97.5V92.475H845.92V97.5ZM857.456 85.275C857.456 85.0083 857.606 84.875 857.906 84.875H860.581C860.781 84.875 860.906 84.9 860.956 84.95C861.023 85 861.056 85.1083 861.056 85.275V92.925H861.181C861.498 92.3917 861.756 91.9583 861.956 91.625C862.173 91.275 862.348 90.9917 862.481 90.775C862.614 90.5417 862.731 90.35 862.831 90.2C862.931 90.05 863.031 89.8917 863.131 89.725C863.448 89.2417 863.806 88.675 864.206 88.025C864.606 87.375 865.081 86.6 865.631 85.7C865.748 85.5333 865.856 85.4 865.956 85.3C866.056 85.1833 866.156 85.1 866.256 85.05C866.373 84.9833 866.498 84.9417 866.631 84.925C866.781 84.8917 866.964 84.875 867.181 84.875H868.406C868.873 84.875 869.223 84.975 869.456 85.175C869.689 85.3583 869.806 85.725 869.806 86.275V97.6C869.806 97.7667 869.773 97.875 869.706 97.925C869.639 97.975 869.523 98 869.356 98H866.656C866.473 98 866.348 97.9833 866.281 97.95C866.214 97.9 866.181 97.7833 866.181 97.6V90.1H866.056C865.673 90.6833 865.306 91.2667 864.956 91.85C864.623 92.4167 864.273 92.9833 863.906 93.55C863.523 94.15 863.139 94.7583 862.756 95.375C862.373 95.975 861.981 96.575 861.581 97.175C861.348 97.525 861.131 97.75 860.931 97.85C860.731 97.95 860.431 98 860.031 98H858.856C858.273 98 857.889 97.8833 857.706 97.65C857.539 97.4167 857.456 97.0667 857.456 96.6V85.275ZM873.081 85.275C873.081 85.0083 873.231 84.875 873.531 84.875H876.206C876.406 84.875 876.531 84.9 876.581 84.95C876.648 85 876.681 85.1083 876.681 85.275V92.925H876.806C877.123 92.3917 877.381 91.9583 877.581 91.625C877.798 91.275 877.973 90.9917 878.106 90.775C878.239 90.5417 878.356 90.35 878.456 90.2C878.556 90.05 878.656 89.8917 878.756 89.725C879.073 89.2417 879.431 88.675 879.831 88.025C880.231 87.375 880.706 86.6 881.256 85.7C881.373 85.5333 881.481 85.4 881.581 85.3C881.681 85.1833 881.781 85.1 881.881 85.05C881.998 84.9833 882.123 84.9417 882.256 84.925C882.406 84.8917 882.589 84.875 882.806 84.875H884.031C884.498 84.875 884.848 84.975 885.081 85.175C885.314 85.3583 885.431 85.725 885.431 86.275V97.6C885.431 97.7667 885.398 97.875 885.331 97.925C885.264 97.975 885.148 98 884.981 98H882.281C882.098 98 881.973 97.9833 881.906 97.95C881.839 97.9 881.806 97.7833 881.806 97.6V90.1H881.681C881.298 90.6833 880.931 91.2667 880.581 91.85C880.248 92.4167 879.898 92.9833 879.531 93.55C879.148 94.15 878.764 94.7583 878.381 95.375C877.998 95.975 877.606 96.575 877.206 97.175C876.973 97.525 876.756 97.75 876.556 97.85C876.356 97.95 876.056 98 875.656 98H874.481C873.898 98 873.514 97.8833 873.331 97.65C873.164 97.4167 873.081 97.0667 873.081 96.6V85.275ZM899.859 87.575C899.525 87.575 899.067 87.625 898.484 87.725C897.9 87.825 897.342 87.9583 896.809 88.125C896.609 88.2083 896.467 88.2333 896.384 88.2C896.3 88.1667 896.234 88.0917 896.184 87.975L895.584 86.3C895.5 86.1 895.459 85.9583 895.459 85.875C895.475 85.775 895.584 85.6833 895.784 85.6C896.417 85.2833 897.159 85.0333 898.009 84.85C898.875 84.6667 899.734 84.575 900.584 84.575C902.134 84.575 903.367 84.8667 904.284 85.45C905.2 86.0167 905.659 86.9 905.659 88.1C905.659 88.7167 905.475 89.275 905.109 89.775C904.742 90.275 904.292 90.675 903.759 90.975V91.075C904.475 91.3083 905.034 91.6917 905.434 92.225C905.85 92.7417 906.059 93.35 906.059 94.05C906.059 94.75 905.9 95.3667 905.584 95.9C905.267 96.4167 904.842 96.85 904.309 97.2C903.775 97.55 903.15 97.8167 902.434 98C901.717 98.1667 900.959 98.25 900.159 98.25C899.759 98.25 899.334 98.2333 898.884 98.2C898.45 98.1667 898.009 98.1167 897.559 98.05C897.125 97.9833 896.7 97.8917 896.284 97.775C895.867 97.6583 895.484 97.525 895.134 97.375C894.95 97.2917 894.85 97.2 894.834 97.1C894.834 97 894.85 96.8833 894.884 96.75L895.534 94.925C895.584 94.7917 895.65 94.7083 895.734 94.675C895.817 94.6417 895.975 94.6583 896.209 94.725C896.809 94.9083 897.442 95.0583 898.109 95.175C898.792 95.275 899.35 95.325 899.784 95.325C900.75 95.325 901.425 95.1583 901.809 94.825C902.192 94.4917 902.384 94.1167 902.384 93.7C902.384 93.2667 902.159 92.9333 901.709 92.7C901.275 92.4667 900.542 92.3417 899.509 92.325C899.192 92.3083 898.95 92.2417 898.784 92.125C898.634 92.0083 898.559 91.8083 898.559 91.525V90.775C898.559 90.4917 898.642 90.3 898.809 90.2C898.992 90.0833 899.234 90.0167 899.534 90C900.367 89.95 900.975 89.8167 901.359 89.6C901.742 89.3667 901.934 89.0583 901.934 88.675C901.934 88.2417 901.734 87.95 901.334 87.8C900.95 87.65 900.459 87.575 899.859 87.575ZM919.778 96.375C919.778 96.5917 919.745 96.775 919.678 96.925C919.628 97.075 919.486 97.2167 919.253 97.35C918.87 97.5333 918.453 97.6833 918.003 97.8C917.57 97.9167 917.12 98.0083 916.653 98.075C916.203 98.1417 915.745 98.1917 915.278 98.225C914.811 98.2583 914.37 98.275 913.953 98.275C912.82 98.275 911.878 98.1667 911.128 97.95C910.395 97.7333 909.803 97.4417 909.353 97.075C908.903 96.6917 908.586 96.25 908.403 95.75C908.22 95.2333 908.128 94.6833 908.128 94.1C908.128 93.45 908.236 92.8583 908.453 92.325C908.67 91.775 908.995 91.3 909.428 90.9C909.861 90.5 910.403 90.1917 911.053 89.975C911.72 89.7417 912.503 89.625 913.403 89.625H916.153V89.225C916.153 88.9917 916.128 88.7667 916.078 88.55C916.028 88.3333 915.92 88.15 915.753 88C915.603 87.8333 915.386 87.7 915.103 87.6C914.82 87.5 914.445 87.45 913.978 87.45C913.728 87.45 913.445 87.4667 913.128 87.5C912.811 87.5167 912.495 87.55 912.178 87.6C911.861 87.6333 911.553 87.6833 911.253 87.75C910.953 87.8 910.686 87.8583 910.453 87.925C910.236 87.975 910.086 87.975 910.003 87.925C909.92 87.875 909.861 87.7667 909.828 87.6L909.428 85.85C909.378 85.6667 909.37 85.5417 909.403 85.475C909.453 85.3917 909.545 85.325 909.678 85.275C910.428 85.0083 911.211 84.8167 912.028 84.7C912.861 84.5833 913.686 84.525 914.503 84.525C916.32 84.525 917.653 84.9167 918.503 85.7C919.353 86.4667 919.778 87.6083 919.778 89.125V96.375ZM916.128 92.05H914.153C913.92 92.05 913.67 92.0667 913.403 92.1C913.136 92.1333 912.886 92.2167 912.653 92.35C912.436 92.4667 912.253 92.6417 912.103 92.875C911.953 93.1083 911.878 93.425 911.878 93.825C911.878 94.4083 912.07 94.8167 912.453 95.05C912.853 95.2833 913.386 95.4 914.053 95.4C914.153 95.4 914.286 95.4 914.453 95.4C914.62 95.3833 914.795 95.3667 914.978 95.35C915.178 95.3167 915.378 95.2833 915.578 95.25C915.778 95.2 915.961 95.1417 916.128 95.075V92.05ZM926.657 97.6C926.657 97.7833 926.624 97.9 926.557 97.95C926.491 97.9833 926.374 98 926.207 98H923.482C923.332 98 923.216 97.9833 923.132 97.95C923.066 97.9 923.032 97.7833 923.032 97.6V85.275C923.032 85.0917 923.066 84.9833 923.132 84.95C923.216 84.9 923.332 84.875 923.482 84.875H926.207C926.374 84.875 926.491 84.9 926.557 84.95C926.624 84.9833 926.657 85.0917 926.657 85.275V89.625H927.832C928.266 89.625 928.657 89.525 929.007 89.325C929.374 89.1083 929.674 88.65 929.907 87.95L930.782 85.2C930.816 85.05 930.874 84.9583 930.957 84.925C931.041 84.8917 931.124 84.875 931.207 84.875H933.982C934.149 84.875 934.241 84.925 934.257 85.025C934.291 85.125 934.299 85.2167 934.282 85.3L933.357 88.575C933.224 89.0917 933.016 89.5583 932.732 89.975C932.466 90.375 932.082 90.675 931.582 90.875L931.557 90.925C931.924 91.025 932.224 91.15 932.457 91.3C932.691 91.45 932.882 91.625 933.032 91.825C933.199 92.0083 933.332 92.225 933.432 92.475C933.532 92.7083 933.624 92.9583 933.707 93.225L934.982 97.55C934.999 97.6333 934.999 97.7333 934.982 97.85C934.966 97.95 934.857 98 934.657 98H931.782C931.716 98 931.632 97.9833 931.532 97.95C931.449 97.9167 931.391 97.8333 931.357 97.7L930.182 93.85C930.016 93.3167 929.749 92.95 929.382 92.75C929.032 92.5333 928.599 92.425 928.082 92.425H926.657V97.6ZM948.562 96.375C948.562 96.5917 948.529 96.775 948.462 96.925C948.412 97.075 948.27 97.2167 948.037 97.35C947.654 97.5333 947.237 97.6833 946.787 97.8C946.354 97.9167 945.904 98.0083 945.437 98.075C944.987 98.1417 944.529 98.1917 944.062 98.225C943.595 98.2583 943.154 98.275 942.737 98.275C941.604 98.275 940.662 98.1667 939.912 97.95C939.179 97.7333 938.587 97.4417 938.137 97.075C937.687 96.6917 937.37 96.25 937.187 95.75C937.004 95.2333 936.912 94.6833 936.912 94.1C936.912 93.45 937.02 92.8583 937.237 92.325C937.454 91.775 937.779 91.3 938.212 90.9C938.645 90.5 939.187 90.1917 939.837 89.975C940.504 89.7417 941.287 89.625 942.187 89.625H944.937V89.225C944.937 88.9917 944.912 88.7667 944.862 88.55C944.812 88.3333 944.704 88.15 944.537 88C944.387 87.8333 944.17 87.7 943.887 87.6C943.604 87.5 943.229 87.45 942.762 87.45C942.512 87.45 942.229 87.4667 941.912 87.5C941.595 87.5167 941.279 87.55 940.962 87.6C940.645 87.6333 940.337 87.6833 940.037 87.75C939.737 87.8 939.47 87.8583 939.237 87.925C939.02 87.975 938.87 87.975 938.787 87.925C938.704 87.875 938.645 87.7667 938.612 87.6L938.212 85.85C938.162 85.6667 938.154 85.5417 938.187 85.475C938.237 85.3917 938.329 85.325 938.462 85.275C939.212 85.0083 939.995 84.8167 940.812 84.7C941.645 84.5833 942.47 84.525 943.287 84.525C945.104 84.525 946.437 84.9167 947.287 85.7C948.137 86.4667 948.562 87.6083 948.562 89.125V96.375ZM944.912 92.05H942.937C942.704 92.05 942.454 92.0667 942.187 92.1C941.92 92.1333 941.67 92.2167 941.437 92.35C941.22 92.4667 941.037 92.6417 940.887 92.875C940.737 93.1083 940.662 93.425 940.662 93.825C940.662 94.4083 940.854 94.8167 941.237 95.05C941.637 95.2833 942.17 95.4 942.837 95.4C942.937 95.4 943.07 95.4 943.237 95.4C943.404 95.3833 943.579 95.3667 943.762 95.35C943.962 95.3167 944.162 95.2833 944.362 95.25C944.562 95.2 944.745 95.1417 944.912 95.075V92.05ZM955.791 87.575C955.458 87.575 955 87.625 954.416 87.725C953.833 87.825 953.275 87.9583 952.741 88.125C952.541 88.2083 952.4 88.2333 952.316 88.2C952.233 88.1667 952.166 88.0917 952.116 87.975L951.516 86.3C951.433 86.1 951.391 85.9583 951.391 85.875C951.408 85.775 951.516 85.6833 951.716 85.6C952.35 85.2833 953.091 85.0333 953.941 84.85C954.808 84.6667 955.666 84.575 956.516 84.575C958.066 84.575 959.3 84.8667 960.216 85.45C961.133 86.0167 961.591 86.9 961.591 88.1C961.591 88.7167 961.408 89.275 961.041 89.775C960.675 90.275 960.225 90.675 959.691 90.975V91.075C960.408 91.3083 960.966 91.6917 961.366 92.225C961.783 92.7417 961.991 93.35 961.991 94.05C961.991 94.75 961.833 95.3667 961.516 95.9C961.2 96.4167 960.775 96.85 960.241 97.2C959.708 97.55 959.083 97.8167 958.366 98C957.65 98.1667 956.891 98.25 956.091 98.25C955.691 98.25 955.266 98.2333 954.816 98.2C954.383 98.1667 953.941 98.1167 953.491 98.05C953.058 97.9833 952.633 97.8917 952.216 97.775C951.8 97.6583 951.416 97.525 951.066 97.375C950.883 97.2917 950.783 97.2 950.766 97.1C950.766 97 950.783 96.8833 950.816 96.75L951.466 94.925C951.516 94.7917 951.583 94.7083 951.666 94.675C951.75 94.6417 951.908 94.6583 952.141 94.725C952.741 94.9083 953.375 95.0583 954.041 95.175C954.725 95.275 955.283 95.325 955.716 95.325C956.683 95.325 957.358 95.1583 957.741 94.825C958.125 94.4917 958.316 94.1167 958.316 93.7C958.316 93.2667 958.091 92.9333 957.641 92.7C957.208 92.4667 956.475 92.3417 955.441 92.325C955.125 92.3083 954.883 92.2417 954.716 92.125C954.566 92.0083 954.491 91.8083 954.491 91.525V90.775C954.491 90.4917 954.575 90.3 954.741 90.2C954.925 90.0833 955.166 90.0167 955.466 90C956.3 89.95 956.908 89.8167 957.291 89.6C957.675 89.3667 957.866 89.0583 957.866 88.675C957.866 88.2417 957.666 87.95 957.266 87.8C956.883 87.65 956.391 87.575 955.791 87.575ZM975.711 96.375C975.711 96.5917 975.677 96.775 975.611 96.925C975.561 97.075 975.419 97.2167 975.186 97.35C974.802 97.5333 974.386 97.6833 973.936 97.8C973.502 97.9167 973.052 98.0083 972.586 98.075C972.136 98.1417 971.677 98.1917 971.211 98.225C970.744 98.2583 970.302 98.275 969.886 98.275C968.752 98.275 967.811 98.1667 967.061 97.95C966.327 97.7333 965.736 97.4417 965.286 97.075C964.836 96.6917 964.519 96.25 964.336 95.75C964.152 95.2333 964.061 94.6833 964.061 94.1C964.061 93.45 964.169 92.8583 964.386 92.325C964.602 91.775 964.927 91.3 965.361 90.9C965.794 90.5 966.336 90.1917 966.986 89.975C967.652 89.7417 968.436 89.625 969.336 89.625H972.086V89.225C972.086 88.9917 972.061 88.7667 972.011 88.55C971.961 88.3333 971.852 88.15 971.686 88C971.536 87.8333 971.319 87.7 971.036 87.6C970.752 87.5 970.377 87.45 969.911 87.45C969.661 87.45 969.377 87.4667 969.061 87.5C968.744 87.5167 968.427 87.55 968.111 87.6C967.794 87.6333 967.486 87.6833 967.186 87.75C966.886 87.8 966.619 87.8583 966.386 87.925C966.169 87.975 966.019 87.975 965.936 87.925C965.852 87.875 965.794 87.7667 965.761 87.6L965.361 85.85C965.311 85.6667 965.302 85.5417 965.336 85.475C965.386 85.3917 965.477 85.325 965.611 85.275C966.361 85.0083 967.144 84.8167 967.961 84.7C968.794 84.5833 969.619 84.525 970.436 84.525C972.252 84.525 973.586 84.9167 974.436 85.7C975.286 86.4667 975.711 87.6083 975.711 89.125V96.375ZM972.061 92.05H970.086C969.852 92.05 969.602 92.0667 969.336 92.1C969.069 92.1333 968.819 92.2167 968.586 92.35C968.369 92.4667 968.186 92.6417 968.036 92.875C967.886 93.1083 967.811 93.425 967.811 93.825C967.811 94.4083 968.002 94.8167 968.386 95.05C968.786 95.2833 969.319 95.4 969.986 95.4C970.086 95.4 970.219 95.4 970.386 95.4C970.552 95.3833 970.727 95.3667 970.911 95.35C971.111 95.3167 971.311 95.2833 971.511 95.25C971.711 95.2 971.894 95.1417 972.061 95.075V92.05ZM989.768 97.5C989.768 97.7167 989.726 97.8583 989.643 97.925C989.576 97.975 989.426 98 989.193 98H986.693C986.326 98 986.143 97.8333 986.143 97.5V85.35C986.143 85.0333 986.326 84.875 986.693 84.875H989.193C989.426 84.875 989.576 84.9083 989.643 84.975C989.726 85.025 989.768 85.15 989.768 85.35V89.625H994.443V85.35C994.443 85.0333 994.626 84.875 994.993 84.875H997.493C997.726 84.875 997.876 84.9083 997.943 84.975C998.009 85.025 998.043 85.15 998.043 85.35V97.5C998.043 97.7167 998.009 97.8583 997.943 97.925C997.876 97.975 997.726 98 997.493 98H994.993C994.626 98 994.443 97.8333 994.443 97.5V92.475H989.768V97.5ZM1012.45 96.375C1012.45 96.5917 1012.42 96.775 1012.35 96.925C1012.3 97.075 1012.16 97.2167 1011.93 97.35C1011.55 97.5333 1011.13 97.6833 1010.68 97.8C1010.25 97.9167 1009.8 98.0083 1009.33 98.075C1008.88 98.1417 1008.42 98.1917 1007.95 98.225C1007.49 98.2583 1007.05 98.275 1006.63 98.275C1005.5 98.275 1004.55 98.1667 1003.8 97.95C1003.07 97.7333 1002.48 97.4417 1002.03 97.075C1001.58 96.6917 1001.26 96.25 1001.08 95.75C1000.9 95.2333 1000.8 94.6833 1000.8 94.1C1000.8 93.45 1000.91 92.8583 1001.13 92.325C1001.35 91.775 1001.67 91.3 1002.1 90.9C1002.54 90.5 1003.08 90.1917 1003.73 89.975C1004.4 89.7417 1005.18 89.625 1006.08 89.625H1008.83V89.225C1008.83 88.9917 1008.8 88.7667 1008.75 88.55C1008.7 88.3333 1008.6 88.15 1008.43 88C1008.28 87.8333 1008.06 87.7 1007.78 87.6C1007.5 87.5 1007.12 87.45 1006.65 87.45C1006.4 87.45 1006.12 87.4667 1005.8 87.5C1005.49 87.5167 1005.17 87.55 1004.85 87.6C1004.54 87.6333 1004.23 87.6833 1003.93 87.75C1003.63 87.8 1003.36 87.8583 1003.13 87.925C1002.91 87.975 1002.76 87.975 1002.68 87.925C1002.6 87.875 1002.54 87.7667 1002.5 87.6L1002.1 85.85C1002.05 85.6667 1002.05 85.5417 1002.08 85.475C1002.13 85.3917 1002.22 85.325 1002.35 85.275C1003.1 85.0083 1003.89 84.8167 1004.7 84.7C1005.54 84.5833 1006.36 84.525 1007.18 84.525C1009 84.525 1010.33 84.9167 1011.18 85.7C1012.03 86.4667 1012.45 87.6083 1012.45 89.125V96.375ZM1008.8 92.05H1006.83C1006.6 92.05 1006.35 92.0667 1006.08 92.1C1005.81 92.1333 1005.56 92.2167 1005.33 92.35C1005.11 92.4667 1004.93 92.6417 1004.78 92.875C1004.63 93.1083 1004.55 93.425 1004.55 93.825C1004.55 94.4083 1004.75 94.8167 1005.13 95.05C1005.53 95.2833 1006.06 95.4 1006.73 95.4C1006.83 95.4 1006.96 95.4 1007.13 95.4C1007.3 95.3833 1007.47 95.3667 1007.65 95.35C1007.85 95.3167 1008.05 95.2833 1008.25 95.25C1008.45 95.2 1008.64 95.1417 1008.8 95.075V92.05ZM1028.96 95.025C1029.49 95.025 1030.01 94.9667 1030.51 94.85C1031.03 94.7167 1031.47 94.5833 1031.84 94.45C1032.05 94.3667 1032.19 94.3417 1032.26 94.375C1032.34 94.3917 1032.42 94.4917 1032.49 94.675L1033.19 96.55C1033.27 96.7167 1033.3 96.85 1033.29 96.95C1033.29 97.05 1033.19 97.15 1033.01 97.25C1032.28 97.65 1031.49 97.9167 1030.66 98.05C1029.83 98.2 1029.07 98.275 1028.39 98.275C1026.42 98.275 1024.93 97.7083 1023.91 96.575C1022.89 95.4417 1022.39 93.7417 1022.39 91.475C1022.39 90.4083 1022.53 89.45 1022.81 88.6C1023.11 87.7333 1023.53 87 1024.06 86.4C1024.59 85.8 1025.24 85.3417 1026.01 85.025C1026.79 84.7083 1027.66 84.55 1028.61 84.55C1029.31 84.55 1030 84.625 1030.69 84.775C1031.37 84.9083 1031.99 85.1167 1032.56 85.4C1032.78 85.5 1032.89 85.5917 1032.91 85.675C1032.94 85.7583 1032.92 85.9 1032.84 86.1L1032.14 88.025C1032.05 88.2083 1031.96 88.3083 1031.86 88.325C1031.76 88.3417 1031.59 88.3167 1031.36 88.25C1030.93 88.1167 1030.5 88.0083 1030.09 87.925C1029.67 87.8417 1029.27 87.8 1028.89 87.8C1028.39 87.8 1027.96 87.9 1027.61 88.1C1027.28 88.3 1027 88.5667 1026.79 88.9C1026.57 89.2333 1026.41 89.625 1026.31 90.075C1026.21 90.5083 1026.16 90.975 1026.16 91.475C1026.16 91.9917 1026.2 92.4667 1026.29 92.9C1026.37 93.3333 1026.52 93.7083 1026.74 94.025C1026.95 94.3417 1027.24 94.5917 1027.59 94.775C1027.95 94.9417 1028.41 95.025 1028.96 95.025ZM1046.8 96.375C1046.8 96.5917 1046.77 96.775 1046.7 96.925C1046.65 97.075 1046.51 97.2167 1046.28 97.35C1045.9 97.5333 1045.48 97.6833 1045.03 97.8C1044.6 97.9167 1044.15 98.0083 1043.68 98.075C1043.23 98.1417 1042.77 98.1917 1042.3 98.225C1041.84 98.2583 1041.4 98.275 1040.98 98.275C1039.85 98.275 1038.9 98.1667 1038.15 97.95C1037.42 97.7333 1036.83 97.4417 1036.38 97.075C1035.93 96.6917 1035.61 96.25 1035.43 95.75C1035.25 95.2333 1035.15 94.6833 1035.15 94.1C1035.15 93.45 1035.26 92.8583 1035.48 92.325C1035.7 91.775 1036.02 91.3 1036.45 90.9C1036.89 90.5 1037.43 90.1917 1038.08 89.975C1038.75 89.7417 1039.53 89.625 1040.43 89.625H1043.18V89.225C1043.18 88.9917 1043.15 88.7667 1043.1 88.55C1043.05 88.3333 1042.95 88.15 1042.78 88C1042.63 87.8333 1042.41 87.7 1042.13 87.6C1041.85 87.5 1041.47 87.45 1041 87.45C1040.75 87.45 1040.47 87.4667 1040.15 87.5C1039.84 87.5167 1039.52 87.55 1039.2 87.6C1038.89 87.6333 1038.58 87.6833 1038.28 87.75C1037.98 87.8 1037.71 87.8583 1037.48 87.925C1037.26 87.975 1037.11 87.975 1037.03 87.925C1036.95 87.875 1036.89 87.7667 1036.85 87.6L1036.45 85.85C1036.4 85.6667 1036.4 85.5417 1036.43 85.475C1036.48 85.3917 1036.57 85.325 1036.7 85.275C1037.45 85.0083 1038.24 84.8167 1039.05 84.7C1039.89 84.5833 1040.71 84.525 1041.53 84.525C1043.35 84.525 1044.68 84.9167 1045.53 85.7C1046.38 86.4667 1046.8 87.6083 1046.8 89.125V96.375ZM1043.15 92.05H1041.18C1040.95 92.05 1040.7 92.0667 1040.43 92.1C1040.16 92.1333 1039.91 92.2167 1039.68 92.35C1039.46 92.4667 1039.28 92.6417 1039.13 92.875C1038.98 93.1083 1038.9 93.425 1038.9 93.825C1038.9 94.4083 1039.1 94.8167 1039.48 95.05C1039.88 95.2833 1040.41 95.4 1041.08 95.4C1041.18 95.4 1041.31 95.4 1041.48 95.4C1041.65 95.3833 1041.82 95.3667 1042 95.35C1042.2 95.3167 1042.4 95.2833 1042.6 95.25C1042.8 95.2 1042.99 95.1417 1043.15 95.075V92.05ZM1050.06 85.275C1050.06 85.0083 1050.21 84.875 1050.51 84.875H1053.18C1053.38 84.875 1053.51 84.9 1053.56 84.95C1053.63 85 1053.66 85.1083 1053.66 85.275V92.925H1053.78C1054.1 92.3917 1054.36 91.9583 1054.56 91.625C1054.78 91.275 1054.95 90.9917 1055.08 90.775C1055.22 90.5417 1055.33 90.35 1055.43 90.2C1055.53 90.05 1055.63 89.8917 1055.73 89.725C1056.05 89.2417 1056.41 88.675 1056.81 88.025C1057.21 87.375 1057.68 86.6 1058.23 85.7C1058.35 85.5333 1058.46 85.4 1058.56 85.3C1058.66 85.1833 1058.76 85.1 1058.86 85.05C1058.98 84.9833 1059.1 84.9417 1059.23 84.925C1059.38 84.8917 1059.57 84.875 1059.78 84.875H1061.01C1061.48 84.875 1061.83 84.975 1062.06 85.175C1062.29 85.3583 1062.41 85.725 1062.41 86.275V97.6C1062.41 97.7667 1062.38 97.875 1062.31 97.925C1062.24 97.975 1062.13 98 1061.96 98H1059.26C1059.08 98 1058.95 97.9833 1058.88 97.95C1058.82 97.9 1058.78 97.7833 1058.78 97.6V90.1H1058.66C1058.28 90.6833 1057.91 91.2667 1057.56 91.85C1057.23 92.4167 1056.88 92.9833 1056.51 93.55C1056.13 94.15 1055.74 94.7583 1055.36 95.375C1054.98 95.975 1054.58 96.575 1054.18 97.175C1053.95 97.525 1053.73 97.75 1053.53 97.85C1053.33 97.95 1053.03 98 1052.63 98H1051.46C1050.88 98 1050.49 97.8833 1050.31 97.65C1050.14 97.4167 1050.06 97.0667 1050.06 96.6V85.275ZM1056.13 83.65C1055.63 83.65 1055.16 83.575 1054.71 83.425C1054.28 83.2583 1053.86 83.0417 1053.46 82.775C1053.08 82.4917 1052.72 82.1833 1052.38 81.85C1052.07 81.5 1051.78 81.1333 1051.51 80.75C1051.48 80.7 1051.44 80.6333 1051.41 80.55C1051.38 80.45 1051.43 80.3333 1051.58 80.2L1052.56 79.25C1052.73 79.1167 1052.83 79.075 1052.88 79.125C1052.95 79.1583 1053.05 79.225 1053.18 79.325C1053.72 79.8583 1054.24 80.275 1054.76 80.575C1055.29 80.875 1055.8 81.025 1056.28 81.025C1056.48 81.025 1056.68 81.0083 1056.88 80.975C1057.1 80.925 1057.33 80.8417 1057.58 80.725C1057.83 80.5917 1058.11 80.4167 1058.41 80.2C1058.71 79.9667 1059.06 79.6583 1059.46 79.275C1059.63 79.1417 1059.74 79.0833 1059.81 79.1C1059.88 79.1 1059.95 79.1417 1060.03 79.225L1060.98 80.05C1061.15 80.2 1061.22 80.3167 1061.18 80.4C1061.17 80.4833 1061.13 80.5583 1061.08 80.625C1059.57 82.6417 1057.92 83.65 1056.13 83.65ZM1071.98 87.825V97.5C1071.98 97.7167 1071.94 97.8583 1071.86 97.925C1071.79 97.975 1071.64 98 1071.41 98H1068.93C1068.55 98 1068.36 97.8333 1068.36 97.5V87.825H1064.81C1064.48 87.825 1064.31 87.6417 1064.31 87.275V85.45C1064.31 85.2167 1064.33 85.0667 1064.38 85C1064.45 84.9167 1064.59 84.875 1064.81 84.875H1075.61C1075.81 84.875 1075.94 84.9167 1076.01 85C1076.08 85.0667 1076.11 85.2167 1076.11 85.45V87.275C1076.11 87.6417 1075.94 87.825 1075.61 87.825H1071.98ZM1083.69 84.55C1085.64 84.55 1087.1 85.0417 1088.06 86.025C1089.05 86.9917 1089.54 88.3833 1089.54 90.2C1089.54 91.0667 1089.37 91.6583 1089.04 91.975C1088.7 92.2917 1088.25 92.45 1087.66 92.45H1081.26C1081.28 92.9833 1081.36 93.425 1081.51 93.775C1081.68 94.125 1081.9 94.4083 1082.16 94.625C1082.43 94.8417 1082.74 94.9917 1083.09 95.075C1083.45 95.1583 1083.85 95.2 1084.26 95.2C1084.75 95.2 1085.24 95.1417 1085.74 95.025C1086.24 94.9083 1086.7 94.7583 1087.14 94.575C1087.34 94.5083 1087.47 94.4917 1087.54 94.525C1087.62 94.5417 1087.7 94.6167 1087.76 94.75L1088.56 96.55C1088.63 96.7 1088.64 96.8167 1088.59 96.9C1088.55 96.9833 1088.47 97.0667 1088.34 97.15C1087.72 97.55 1087 97.8333 1086.19 98C1085.37 98.1833 1084.61 98.275 1083.91 98.275C1081.73 98.275 1080.11 97.7333 1079.06 96.65C1078.01 95.5667 1077.49 93.85 1077.49 91.5C1077.49 90.4 1077.63 89.425 1077.91 88.575C1078.21 87.7083 1078.63 86.975 1079.16 86.375C1079.71 85.775 1080.36 85.325 1081.11 85.025C1081.88 84.7083 1082.74 84.55 1083.69 84.55ZM1083.76 87.55C1083.08 87.55 1082.52 87.7917 1082.09 88.275C1081.65 88.7583 1081.4 89.375 1081.34 90.125H1086.01C1086.01 89.7583 1085.97 89.4167 1085.89 89.1C1085.82 88.7833 1085.7 88.5167 1085.54 88.3C1085.37 88.0667 1085.15 87.8833 1084.86 87.75C1084.58 87.6167 1084.21 87.55 1083.76 87.55Z" fill="#0A0A0A"/>
<rect x="1315" y="70" width="160" height="40" rx="20" fill="#E21E23"/>
<path d="M1360.4 95.696C1360.4 95.8133 1360.38 95.8933 1360.34 95.936C1360.29 95.9787 1360.2 96 1360.05 96H1358.3C1358.08 96 1357.97 95.8987 1357.97 95.696V86.912H1353.65V95.696C1353.65 95.8133 1353.63 95.8933 1353.58 95.936C1353.54 95.9787 1353.45 96 1353.3 96H1351.54C1351.31 96 1351.2 95.8987 1351.2 95.696V85.872C1351.2 85.4987 1351.27 85.2267 1351.42 85.056C1351.58 84.8747 1351.85 84.784 1352.22 84.784H1359.38C1359.76 84.784 1360.03 84.8747 1360.18 85.056C1360.33 85.2267 1360.4 85.4987 1360.4 85.872V95.696ZM1370.39 91.76C1370.39 93.168 1370.06 94.256 1369.39 95.024C1368.71 95.792 1367.69 96.176 1366.31 96.176C1364.93 96.176 1363.91 95.792 1363.27 95.024C1362.63 94.256 1362.31 93.1787 1362.31 91.792C1362.31 91.1093 1362.4 90.496 1362.59 89.952C1362.78 89.3973 1363.04 88.9333 1363.39 88.56C1363.74 88.1867 1364.16 87.8987 1364.65 87.696C1365.15 87.4933 1365.72 87.392 1366.35 87.392C1367.69 87.392 1368.7 87.7813 1369.37 88.56C1370.05 89.328 1370.39 90.3947 1370.39 91.76ZM1367.98 91.808C1367.98 91.4453 1367.95 91.1147 1367.9 90.816C1367.84 90.5173 1367.75 90.2613 1367.63 90.048C1367.5 89.8347 1367.33 89.6693 1367.13 89.552C1366.93 89.424 1366.68 89.36 1366.38 89.36C1365.81 89.36 1365.39 89.5787 1365.11 90.016C1364.85 90.4427 1364.71 91.024 1364.71 91.76C1364.71 92.56 1364.84 93.168 1365.08 93.584C1365.34 94 1365.75 94.208 1366.33 94.208C1366.63 94.208 1366.88 94.1493 1367.08 94.032C1367.3 93.904 1367.47 93.7333 1367.59 93.52C1367.73 93.296 1367.83 93.04 1367.88 92.752C1367.95 92.464 1367.98 92.1493 1367.98 91.808ZM1377.62 89.504H1375.64C1375.49 90.816 1375.34 91.8507 1375.19 92.608C1375.04 93.3547 1374.87 93.8827 1374.69 94.192H1377.62V89.504ZM1372.29 94.176C1372.59 93.8987 1372.81 93.536 1372.93 93.088C1373.06 92.6293 1373.15 92.1173 1373.21 91.552L1373.64 88.512C1373.68 88.2347 1373.77 88.016 1373.91 87.856C1374.06 87.6853 1374.35 87.6 1374.77 87.6H1378.98C1379.39 87.6 1379.65 87.6853 1379.77 87.856C1379.89 88.016 1379.96 88.256 1379.96 88.576V94.176L1380.5 94.224C1380.71 94.2453 1380.85 94.3147 1380.92 94.432C1380.99 94.5493 1381.03 94.6933 1381.03 94.864L1380.84 98.224C1380.84 98.384 1380.75 98.464 1380.58 98.464H1379.17C1379.08 98.464 1379.01 98.4427 1378.98 98.4C1378.95 98.3573 1378.93 98.2933 1378.92 98.208L1378.82 96H1373.46C1373.44 96.3733 1373.42 96.7413 1373.4 97.104C1373.38 97.4667 1373.35 97.8347 1373.33 98.208C1373.32 98.304 1373.3 98.368 1373.27 98.4C1373.24 98.4427 1373.17 98.464 1373.06 98.464H1371.67C1371.51 98.464 1371.43 98.384 1371.43 98.224L1371.24 94.88C1371.24 94.6987 1371.27 94.5493 1371.35 94.432C1371.42 94.3147 1371.57 94.2453 1371.78 94.224L1372.29 94.176ZM1384.92 98.992C1384.92 99.1093 1384.9 99.184 1384.86 99.216C1384.83 99.248 1384.74 99.264 1384.59 99.264H1382.92C1382.81 99.264 1382.72 99.248 1382.67 99.216C1382.61 99.184 1382.59 99.1093 1382.59 98.992V88.56C1382.59 88.4427 1382.6 88.352 1382.63 88.288C1382.68 88.2133 1382.77 88.1387 1382.91 88.064C1383.42 87.8293 1383.99 87.664 1384.62 87.568C1385.26 87.472 1385.87 87.424 1386.44 87.424C1387.2 87.424 1387.83 87.5413 1388.35 87.776C1388.87 88 1389.29 88.3093 1389.59 88.704C1389.91 89.088 1390.14 89.5467 1390.28 90.08C1390.42 90.6133 1390.49 91.184 1390.49 91.792C1390.49 92.3893 1390.42 92.9547 1390.27 93.488C1390.12 94.0107 1389.89 94.4693 1389.58 94.864C1389.27 95.2587 1388.87 95.5733 1388.39 95.808C1387.93 96.032 1387.37 96.144 1386.73 96.144C1386.41 96.144 1386.11 96.128 1385.83 96.096C1385.57 96.0747 1385.26 96.0267 1384.92 95.952V98.992ZM1388.06 91.744C1388.06 91.3067 1388.02 90.9387 1387.93 90.64C1387.85 90.3413 1387.72 90.1013 1387.55 89.92C1387.39 89.7387 1387.18 89.6107 1386.94 89.536C1386.7 89.4613 1386.44 89.424 1386.14 89.424C1385.99 89.424 1385.79 89.44 1385.55 89.472C1385.31 89.504 1385.1 89.5467 1384.92 89.6V93.968C1385.2 94.0427 1385.45 94.0907 1385.66 94.112C1385.88 94.1333 1386.08 94.144 1386.25 94.144C1386.78 94.144 1387.22 93.9627 1387.55 93.6C1387.89 93.2373 1388.06 92.6187 1388.06 91.744ZM1400 91.76C1400 93.168 1399.67 94.256 1399 95.024C1398.32 95.792 1397.3 96.176 1395.92 96.176C1394.54 96.176 1393.52 95.792 1392.88 95.024C1392.24 94.256 1391.92 93.1787 1391.92 91.792C1391.92 91.1093 1392.01 90.496 1392.2 89.952C1392.39 89.3973 1392.65 88.9333 1393 88.56C1393.35 88.1867 1393.77 87.8987 1394.26 87.696C1394.76 87.4933 1395.33 87.392 1395.96 87.392C1397.3 87.392 1398.31 87.7813 1398.98 88.56C1399.66 89.328 1400 90.3947 1400 91.76ZM1397.59 91.808C1397.59 91.4453 1397.56 91.1147 1397.51 90.816C1397.45 90.5173 1397.36 90.2613 1397.24 90.048C1397.11 89.8347 1396.94 89.6693 1396.74 89.552C1396.54 89.424 1396.29 89.36 1395.99 89.36C1395.42 89.36 1395 89.5787 1394.72 90.016C1394.46 90.4427 1394.32 91.024 1394.32 91.76C1394.32 92.56 1394.45 93.168 1394.69 93.584C1394.95 94 1395.36 94.208 1395.94 94.208C1396.24 94.208 1396.49 94.1493 1396.69 94.032C1396.9 93.904 1397.08 93.7333 1397.2 93.52C1397.34 93.296 1397.44 93.04 1397.49 92.752C1397.56 92.464 1397.59 92.1493 1397.59 91.808ZM1406.37 88.208C1406.96 88.208 1407.47 88.3093 1407.87 88.512C1408.28 88.7147 1408.61 88.992 1408.86 89.344C1409.12 89.696 1409.3 90.1067 1409.41 90.576C1409.52 91.0453 1409.58 91.5413 1409.58 92.064C1409.58 92.576 1409.51 93.0773 1409.36 93.568C1409.22 94.048 1408.99 94.48 1408.65 94.864C1408.32 95.248 1407.89 95.5627 1407.36 95.808C1406.84 96.0427 1406.19 96.1653 1405.41 96.176C1404.53 96.176 1403.83 96.0533 1403.29 95.808C1402.77 95.552 1402.37 95.216 1402.08 94.8C1401.79 94.384 1401.6 93.9093 1401.5 93.376C1401.42 92.832 1401.37 92.2667 1401.37 91.68C1401.37 90.7947 1401.42 89.9787 1401.5 89.232C1401.59 88.4853 1401.76 87.824 1402.01 87.248C1402.28 86.6613 1402.65 86.1653 1403.12 85.76C1403.6 85.3547 1404.23 85.0507 1405.01 84.848C1405.38 84.7413 1405.82 84.64 1406.33 84.544C1406.86 84.4373 1407.41 84.3253 1408 84.208C1408.08 84.1867 1408.15 84.1813 1408.21 84.192C1408.27 84.2027 1408.31 84.2667 1408.33 84.384L1408.67 85.728C1408.71 85.8667 1408.71 85.9573 1408.65 86C1408.6 86.032 1408.55 86.0587 1408.49 86.08C1408.12 86.176 1407.8 86.2507 1407.52 86.304C1407.24 86.3573 1406.96 86.416 1406.69 86.48C1406.19 86.5867 1405.77 86.704 1405.45 86.832C1405.13 86.9493 1404.87 87.0933 1404.67 87.264C1404.48 87.4347 1404.33 87.648 1404.24 87.904C1404.14 88.1493 1404.08 88.4533 1404.05 88.816C1404.06 88.816 1404.07 88.8213 1404.08 88.832L1404.11 88.864C1404.48 88.6187 1404.86 88.448 1405.25 88.352C1405.64 88.256 1406.01 88.208 1406.37 88.208ZM1405.42 94.24C1405.76 94.24 1406.05 94.1813 1406.27 94.064C1406.49 93.936 1406.67 93.7707 1406.8 93.568C1406.93 93.3653 1407.02 93.1413 1407.07 92.896C1407.12 92.6507 1407.15 92.4 1407.15 92.144C1407.15 91.9093 1407.13 91.6747 1407.09 91.44C1407.04 91.1947 1406.96 90.976 1406.85 90.784C1406.74 90.592 1406.59 90.4373 1406.4 90.32C1406.21 90.192 1405.96 90.128 1405.65 90.128C1405.37 90.128 1405.08 90.1707 1404.77 90.256C1404.46 90.3413 1404.18 90.4587 1403.93 90.608C1403.89 90.9493 1403.87 91.2373 1403.85 91.472C1403.84 91.696 1403.84 91.9307 1403.84 92.176C1403.84 92.464 1403.86 92.736 1403.9 92.992C1403.96 93.2373 1404.04 93.456 1404.16 93.648C1404.28 93.8293 1404.44 93.9733 1404.64 94.08C1404.84 94.1867 1405.1 94.24 1405.42 94.24ZM1413.53 95.68C1413.53 95.8187 1413.51 95.9093 1413.45 95.952C1413.41 95.984 1413.31 96 1413.16 96H1411.56C1411.33 96 1411.21 95.8933 1411.21 95.68V87.904C1411.21 87.7013 1411.33 87.6 1411.56 87.6H1413.16C1413.31 87.6 1413.41 87.6213 1413.45 87.664C1413.51 87.696 1413.53 87.776 1413.53 87.904V90.64H1416.52V87.904C1416.52 87.7013 1416.64 87.6 1416.88 87.6H1418.48C1418.63 87.6 1418.72 87.6213 1418.76 87.664C1418.81 87.696 1418.83 87.776 1418.83 87.904V95.68C1418.83 95.8187 1418.81 95.9093 1418.76 95.952C1418.72 95.984 1418.63 96 1418.48 96H1416.88C1416.64 96 1416.52 95.8933 1416.52 95.68V92.464H1413.53V95.68ZM1424.56 87.392C1425.81 87.392 1426.74 87.7067 1427.36 88.336C1427.99 88.9547 1428.31 89.8453 1428.31 91.008C1428.31 91.5627 1428.2 91.9413 1427.99 92.144C1427.77 92.3467 1427.48 92.448 1427.11 92.448H1423.01C1423.02 92.7893 1423.08 93.072 1423.17 93.296C1423.28 93.52 1423.42 93.7013 1423.59 93.84C1423.76 93.9787 1423.96 94.0747 1424.18 94.128C1424.41 94.1813 1424.66 94.208 1424.93 94.208C1425.24 94.208 1425.56 94.1707 1425.88 94.096C1426.2 94.0213 1426.49 93.9253 1426.77 93.808C1426.9 93.7653 1426.98 93.7547 1427.03 93.776C1427.08 93.7867 1427.13 93.8347 1427.17 93.92L1427.68 95.072C1427.73 95.168 1427.73 95.2427 1427.7 95.296C1427.68 95.3493 1427.62 95.4027 1427.54 95.456C1427.14 95.712 1426.69 95.8933 1426.16 96C1425.64 96.1173 1425.16 96.176 1424.71 96.176C1423.31 96.176 1422.28 95.8293 1421.6 95.136C1420.93 94.4427 1420.6 93.344 1420.6 91.84C1420.6 91.136 1420.69 90.512 1420.87 89.968C1421.06 89.4133 1421.33 88.944 1421.67 88.56C1422.02 88.176 1422.44 87.888 1422.92 87.696C1423.41 87.4933 1423.96 87.392 1424.56 87.392ZM1424.61 89.312C1424.17 89.312 1423.82 89.4667 1423.54 89.776C1423.26 90.0853 1423.1 90.48 1423.06 90.96H1426.05C1426.05 90.7253 1426.02 90.5067 1425.97 90.304C1425.93 90.1013 1425.85 89.9307 1425.75 89.792C1425.64 89.6427 1425.5 89.5253 1425.32 89.44C1425.13 89.3547 1424.9 89.312 1424.61 89.312ZM1433.66 87.392C1434.9 87.392 1435.84 87.7067 1436.46 88.336C1437.09 88.9547 1437.4 89.8453 1437.4 91.008C1437.4 91.5627 1437.29 91.9413 1437.08 92.144C1436.87 92.3467 1436.57 92.448 1436.2 92.448H1432.1C1432.12 92.7893 1432.17 93.072 1432.26 93.296C1432.37 93.52 1432.51 93.7013 1432.68 93.84C1432.85 93.9787 1433.05 94.0747 1433.27 94.128C1433.51 94.1813 1433.76 94.208 1434.02 94.208C1434.33 94.208 1434.65 94.1707 1434.97 94.096C1435.29 94.0213 1435.59 93.9253 1435.86 93.808C1435.99 93.7653 1436.08 93.7547 1436.12 93.776C1436.17 93.7867 1436.22 93.8347 1436.26 93.92L1436.78 95.072C1436.82 95.168 1436.82 95.2427 1436.79 95.296C1436.77 95.3493 1436.72 95.4027 1436.63 95.456C1436.24 95.712 1435.78 95.8933 1435.26 96C1434.73 96.1173 1434.25 96.176 1433.8 96.176C1432.4 96.176 1431.37 95.8293 1430.7 95.136C1430.02 94.4427 1429.69 93.344 1429.69 91.84C1429.69 91.136 1429.78 90.512 1429.96 89.968C1430.15 89.4133 1430.42 88.944 1430.76 88.56C1431.11 88.176 1431.53 87.888 1432.01 87.696C1432.5 87.4933 1433.05 87.392 1433.66 87.392ZM1433.7 89.312C1433.27 89.312 1432.91 89.4667 1432.63 89.776C1432.36 90.0853 1432.2 90.48 1432.15 90.96H1435.14C1435.14 90.7253 1435.12 90.5067 1435.06 90.304C1435.02 90.1013 1434.95 89.9307 1434.84 89.792C1434.73 89.6427 1434.59 89.5253 1434.41 89.44C1434.23 89.3547 1433.99 89.312 1433.7 89.312Z" fill="white"/>
<path fill-rule="evenodd" clip-rule="evenodd" d="M175 111C188.807 111 200 99.8071 200 86C200 72.1929 188.807 61 175 61C161.193 61 150 72.1929 150 86C150 99.8071 161.193 111 175 111ZM175.954 96.0751C176.548 96.6528 177.497 96.6398 178.075 96.046C178.653 95.4523 178.64 94.5026 178.046 93.9249L170.479 86.5619C170.282 86.3707 170.276 86.0555 170.47 85.8562L178.075 78.0464C178.653 77.4529 178.64 76.5032 178.046 75.9253C177.453 75.3474 176.503 75.36 175.925 75.9536L168.321 83.7634C166.974 85.1472 166.999 87.3624 168.386 88.7121L175.954 96.0751Z" fill="white"/>
<path fill-rule="evenodd" clip-rule="evenodd" d="M1745 119C1731.19 119 1720 107.807 1720 94C1720 80.1929 1731.19 69 1745 69C1758.81 69 1770 80.1929 1770 94C1770 107.807 1758.81 119 1745 119ZM1744.05 104.075C1743.45 104.653 1742.5 104.64 1741.92 104.046C1741.35 103.452 1741.36 102.503 1741.95 101.925L1749.52 94.5619C1749.72 94.3707 1749.72 94.0555 1749.53 93.8562L1741.93 86.0464C1741.35 85.4529 1741.36 84.5032 1741.95 83.9253C1742.55 83.3474 1743.5 83.36 1744.07 83.9536L1751.68 91.7634C1753.03 93.1472 1753 95.3624 1751.61 96.7121L1744.05 104.075Z" fill="white"/>
</svg>
