<svg width="18" height="20" viewBox="0 0 18 20" fill="none" xmlns="http://www.w3.org/2000/svg">
<path d="M17.2327 2.87829H13.0715V2.19984C13.0715 0.986842 12.0847 0 10.8717 0H6.91612C5.70313 0 4.71628 0.986842 4.71628 2.19984V2.87829H0.555099C0.246711 2.87829 0 3.125 0 3.43339C0 3.74178 0.246711 3.98849 0.555099 3.98849H1.55839V17.0312C1.55839 18.6678 2.89063 20 4.52714 20H13.2607C14.8972 20 16.2294 18.6678 16.2294 17.0312V3.98849H17.2327C17.5411 3.98849 17.7878 3.74178 17.7878 3.43339C17.7878 3.125 17.5411 2.87829 17.2327 2.87829ZM5.82648 2.19984C5.82648 1.59951 6.31579 1.1102 6.91612 1.1102H10.8717C11.472 1.1102 11.9613 1.59951 11.9613 2.19984V2.87829H5.82648V2.19984ZM15.1192 17.0312C15.1192 18.0551 14.2845 18.8898 13.2607 18.8898H4.52714C3.50329 18.8898 2.66859 18.0551 2.66859 17.0312V3.98849H15.1234V17.0312H15.1192Z" fill="#E21E23"/>
<path d="M8.8947 16.8996C9.20309 16.8996 9.4498 16.6529 9.4498 16.3445V6.53361C9.4498 6.22523 9.20309 5.97852 8.8947 5.97852C8.58631 5.97852 8.3396 6.22523 8.3396 6.53361V16.3404C8.3396 16.6487 8.58631 16.8996 8.8947 16.8996Z" fill="#E21E23"/>
<path d="M5.27141 16.2877C5.57979 16.2877 5.8265 16.041 5.8265 15.7326V7.14299C5.8265 6.8346 5.57979 6.58789 5.27141 6.58789C4.96302 6.58789 4.71631 6.8346 4.71631 7.14299V15.7326C4.71631 16.041 4.96713 16.2877 5.27141 16.2877Z" fill="#E21E23"/>
<path d="M12.516 16.2877C12.8244 16.2877 13.0711 16.041 13.0711 15.7326V7.14299C13.0711 6.8346 12.8244 6.58789 12.516 6.58789C12.2076 6.58789 11.9609 6.8346 11.9609 7.14299V15.7326C11.9609 16.041 12.2076 16.2877 12.516 16.2877Z" fill="#E21E23"/>
</svg>
