<svg width="30" height="30" viewBox="0 0 30 30" fill="none" xmlns="http://www.w3.org/2000/svg">
<rect width="30" height="30" rx="15" fill="white"/>
<path d="M15 8.0251C16.1785 8.0251 17.1371 8.98373 17.1371 10.1622C17.1371 11.3398 16.1782 12.2984 15 12.2984C13.8222 12.2984 12.8633 11.3398 12.8633 10.1622C12.8631 8.98348 13.8224 8.0251 15 8.0251ZM15 15.322C17.8467 15.322 20.1617 13.0077 20.1617 10.1622C20.1617 7.31528 17.8469 5 15 5C12.1535 5 9.83822 7.31552 9.83822 10.1622C9.83822 13.0077 12.1535 15.322 15 15.322ZM17.0882 19.5323C18.15 19.2905 19.1634 18.8709 20.0854 18.2913C20.4248 18.0777 20.6655 17.7381 20.7545 17.3471C20.8435 16.9561 20.7735 16.5457 20.56 16.2063C20.4544 16.038 20.3166 15.8923 20.1546 15.7773C19.9926 15.6624 19.8096 15.5805 19.6159 15.5363C19.4222 15.4922 19.2218 15.4866 19.0259 15.52C18.8301 15.5534 18.6428 15.6251 18.4747 15.7309C16.3601 17.0604 13.6384 17.0594 11.5254 15.7309C11.3574 15.625 11.1701 15.5534 10.9743 15.52C10.7785 15.4865 10.578 15.4921 10.3844 15.5362C10.1907 15.5804 10.0077 15.6623 9.84569 15.7773C9.68372 15.8922 9.54601 16.038 9.44044 16.2063C9.22683 16.5456 9.15675 16.9559 9.24562 17.3469C9.33448 17.7379 9.57502 18.0776 9.91432 18.2913C10.8362 18.8707 11.8494 19.2902 12.911 19.5323L10.0255 22.4183C9.74193 22.702 9.58267 23.0867 9.58274 23.4878C9.58281 23.8888 9.7422 24.2735 10.0259 24.5571C10.3095 24.8406 10.6942 24.9999 11.0953 24.9998C11.4964 24.9997 11.881 24.8403 12.1646 24.5567L14.9995 21.7213L17.8361 24.5569C17.9763 24.6974 18.1429 24.8088 18.3262 24.8848C18.5096 24.9609 18.7061 25 18.9046 25C19.1031 25 19.2997 24.9609 19.483 24.8848C19.6664 24.8088 19.833 24.6974 19.9732 24.5569C20.1139 24.4167 20.2255 24.2501 20.3016 24.0666C20.3778 23.8832 20.417 23.6865 20.417 23.4879C20.417 23.2892 20.3778 23.0926 20.3016 22.9091C20.2255 22.7257 20.1139 22.559 19.9732 22.4188L17.0882 19.5323Z" fill="#0A0A0A"/>
</svg>
