<svg viewBox="0 0 15 15" fill="none" xmlns="http://www.w3.org/2000/svg">
<path d="M19.5959 15.819L16.5003 12.723C15.8836 12.1089 14.8625 12.1275 14.2245 12.7659L12.6648 14.3251C12.5663 14.2708 12.4643 14.2141 12.3571 14.1539C11.3722 13.6082 10.0242 12.8602 8.60575 11.4407C7.18307 10.0182 6.43442 8.66818 5.88704 7.68266C5.82928 7.57825 5.77393 7.47759 5.71928 7.38199L6.76602 6.33681L7.28063 5.82156C7.91969 5.18233 7.93731 4.16151 7.32215 3.54559L4.22646 0.449216C3.6113 -0.165832 2.58973 -0.147173 1.95067 0.492062L1.0782 1.36954L1.10204 1.39321C0.809488 1.7665 0.565024 2.19704 0.383101 2.66132C0.215402 3.10325 0.110994 3.52498 0.0632525 3.94756C-0.345513 7.33632 1.20305 10.4334 5.40565 14.636C11.2149 20.4449 15.8964 20.0061 16.0984 19.9847C16.5383 19.9321 16.9598 19.827 17.3882 19.6606C17.8485 19.4808 18.2787 19.2367 18.6518 18.9448L18.6708 18.9617L19.5547 18.0962C20.1924 17.4571 20.2108 16.4359 19.5959 15.819Z" fill="#E21E23"/>
</svg>
