<svg width="23" height="25" viewBox="0 0 23 25" fill="none" xmlns="http://www.w3.org/2000/svg">
<path d="M22.6503 22.771L16.9804 16.5827C18.4382 14.7641 19.237 12.4759 19.237 10.0937C19.237 4.52814 14.922 0 9.61849 0C4.31494 0 0 4.52814 0 10.0937C0 15.6593 4.31494 20.1875 9.61849 20.1875C11.6095 20.1875 13.5069 19.5573 15.1291 18.361L20.842 24.5963C21.0808 24.8565 21.402 25 21.7462 25C22.0719 25 22.381 24.8697 22.6156 24.6327C23.1141 24.1293 23.13 23.2946 22.6503 22.771ZM9.61849 2.63315C13.5387 2.63315 16.7278 5.97988 16.7278 10.0937C16.7278 14.2076 13.5387 17.5543 9.61849 17.5543C5.69833 17.5543 2.50917 14.2076 2.50917 10.0937C2.50917 5.97988 5.69833 2.63315 9.61849 2.63315Z" fill="#E21E23"/>
<path d="M14 10.5259C14 10.6428 13.9839 10.7224 13.9517 10.7649C13.9195 10.8074 13.8444 10.8287 13.7264 10.8287H10.9095V13.7291C10.9095 13.846 10.888 13.9203 10.8451 13.9522C10.8021 13.9841 10.7217 14 10.6036 14H9.41247C9.30516 14 9.22468 13.9841 9.17103 13.9522C9.1281 13.9203 9.10664 13.846 9.10664 13.7291V10.8287H6.27364C6.1556 10.8287 6.08048 10.8074 6.04829 10.7649C6.0161 10.7224 6 10.6428 6 10.5259V9.4741C6 9.35724 6.0161 9.27756 6.04829 9.23506C6.08048 9.18194 6.1556 9.15538 6.27364 9.15538H9.10664V6.27092C9.10664 6.15405 9.1281 6.07968 9.17103 6.04781C9.22468 6.01594 9.30516 6 9.41247 6H10.6036C10.7217 6 10.8021 6.01594 10.8451 6.04781C10.888 6.07968 10.9095 6.15405 10.9095 6.27092V9.15538H13.7264C13.8444 9.15538 13.9195 9.18194 13.9517 9.23506C13.9839 9.27756 14 9.35724 14 9.4741V10.5259Z" fill="#E21E23"/>
</svg>
